<?xml version="1.0" standalone="no"?>
<!DOCTYPE svg PUBLIC "-//W3C//DTD SVG 1.1//EN" "http://www.w3.org/Graphics/SVG/1.1/DTD/svg11.dtd" >
<svg xmlns="http://www.w3.org/2000/svg">
<metadata>
This is a custom SVG webfont generated by Font Squirrel.
Copyright   : C 19901995 Copyright ATRI Graphic Bureau AzZet  Designed by A Andreev
</metadata>
<defs>
<font id="NewsPaperCTTRegular" horiz-adv-x="964" >
<font-face units-per-em="2048" ascent="1638" descent="-410" />
<missing-glyph horiz-adv-x="854" />
<glyph unicode=" "  horiz-adv-x="854" />
<glyph unicode="&#x09;" horiz-adv-x="854" />
<glyph unicode="&#xa0;" horiz-adv-x="854" />
<glyph unicode="!" horiz-adv-x="350" d="M84 0v211h182v-211h-182zM86 1401h178l-37 -955h-102z" />
<glyph unicode="&#x22;" horiz-adv-x="591" d="M68 1401h161l-26 -561h-113zM371 1401h157l-22 -561h-115z" />
<glyph unicode="#" horiz-adv-x="1273" d="M223 487l10 80h265l32 240h-264l13 80h264l53 389h84l-53 -389h250l53 389h82l-54 -389h271l-12 -80h-269l-35 -240h269l-11 -80h-270l-59 -419h-82l59 419h-250l-59 -419h-84l61 419h-264zM580 567h249l35 240h-252z" />
<glyph unicode="$" horiz-adv-x="985" d="M49 236l109 71q57 -92 135 -153.5t192 -61.5q55 0 108.5 17.5t94.5 51.5t66.5 80t25.5 105q0 94 -53 158.5t-139 93.5q-86 33 -176 65.5t-166 81t-124 121t-48 183.5q0 76 27.5 135t73.5 101t108.5 68.5t130.5 37.5v157h127v-157q199 -41 315 -211l-100 -76 q-59 76 -118.5 122t-160.5 46q-49 0 -97 -13.5t-86 -40t-61.5 -68.5t-23.5 -97q0 -88 52 -139.5t130 -87t170 -67.5t170 -81t130 -126t52 -204q0 -86 -29.5 -149.5t-80.5 -108.5t-119 -73.5t-143 -41.5v-163h-127v163q-125 25 -212 88.5t-153 172.5z" />
<glyph unicode="%" horiz-adv-x="1249" d="M66 1051q0 59 9 122.5t34.5 116.5t72.5 88t123 35q74 0 120 -35t72.5 -88t36 -116.5t9.5 -122.5t-9.5 -125t-36 -119t-72.5 -88t-120 -35q-76 0 -123 35t-72.5 88t-34.5 119t-9 125zM152 1051q0 -39 4 -90.5t19 -96.5t46 -75.5t84 -30.5q51 0 82 30.5t46.5 75.5 t19.5 96.5t4 90.5t-4 88t-19.5 94t-45.5 75.5t-83 30.5t-84 -30.5t-46 -75.5t-19 -94t-4 -88zM199 0l762 1399h83l-761 -1399h-84zM702 348q0 59 9.5 124t35 118t72.5 88t121 35t121 -35t72.5 -88t35 -117.5t9.5 -124.5q0 -59 -9.5 -122.5t-35 -117t-72.5 -88t-121 -34.5 t-121 34.5t-72.5 88t-35 117t-9.5 122.5zM788 348q0 -39 4.5 -89t19.5 -94t45 -75t83 -31t83 31t45 75t19.5 94t4.5 89q0 41 -3.5 91t-18.5 95.5t-46 76t-84 30.5t-83 -30.5t-45 -76t-19.5 -95.5t-4.5 -91z" />
<glyph unicode="&#x26;" horiz-adv-x="1161" d="M66 344q0 158 75.5 263.5t204.5 189.5q-37 82 -65.5 164.5t-28.5 175.5q0 55 20.5 107t55 91t84 62.5t106.5 23.5q106 0 182 -75.5t84 -180.5q0 -137 -74.5 -233t-183.5 -172q59 -113 133 -215.5t160 -194.5q47 76 73 161t42 171l129 -23q-18 -111 -51 -215t-90 -200 q47 -51 89 -80t107 -43v-125q-10 -2 -31 -2q-76 0 -143 43t-125 84q-76 -61 -163 -104.5t-187 -43.5q-80 0 -151.5 28t-126 78t-88 117.5t-37.5 147.5zM199 385q0 -55 20.5 -107.5t55 -94.5t84 -66.5t106.5 -24.5q78 0 143.5 38t118.5 91q-188 217 -319 463 q-84 -57 -146.5 -126t-62.5 -173zM387 1151q0 -76 20.5 -145.5t57.5 -135.5q72 47 128 118t56 165q0 55 -30.5 108.5t-92.5 53.5q-66 0 -100.5 -53.5t-38.5 -110.5z" />
<glyph unicode="'" horiz-adv-x="264" d="M63 1401h164l-24 -561h-117z" />
<glyph unicode="(" horiz-adv-x="395" d="M66 567q0 123 13 231.5t40.5 212t67.5 206t94 210.5l112 -47q-90 -193 -143 -396.5t-53 -416.5t53 -416.5t143 -396.5l-112 -49q-102 215 -158.5 417.5t-56.5 444.5z" />
<glyph unicode=")" horiz-adv-x="395" d="M16 -246q88 199 142.5 396.5t54.5 416.5q0 211 -53.5 416t-143.5 397l113 47q102 -213 158.5 -416.5t56.5 -443.5q0 -123 -13.5 -231.5t-41 -212t-67.5 -205.5t-93 -213z" />
<glyph unicode="*" horiz-adv-x="679" d="M78 1167l31 99l186 -60v195h102v-195l185 60l30 -99l-184 -57l117 -158l-84 -61l-115 158l-115 -158l-81 61l112 158z" />
<glyph unicode="+" horiz-adv-x="1095" d="M63 670v84h431v403h86v-403h432v-84h-432v-404h-86v404h-431z" />
<glyph unicode="," horiz-adv-x="329" d="M53 -276l90 276h-61v211h182v-197l-121 -290h-90z" />
<glyph unicode="-" horiz-adv-x="569" d="M98 453v133h369v-133h-369z" />
<glyph unicode="." horiz-adv-x="350" d="M86 0v211h182v-211h-182z" />
<glyph unicode="/" horiz-adv-x="876" d="M-113 -266l858 1665h127l-860 -1665h-125z" />
<glyph unicode="0" d="M49 702q0 109 15.5 236t61.5 235.5t132 181t227 72.5t227.5 -72.5t132.5 -182t61.5 -235.5t15.5 -235t-14.5 -236.5t-60.5 -237t-132 -182.5t-230 -73q-141 0 -227 74t-132 183.5t-61.5 236t-15.5 235.5zM184 702q0 -76 7.5 -181t36 -199.5t89 -161t168.5 -66.5 q106 0 167 66.5t90.5 161t36.5 200t7 180.5q0 76 -7 180.5t-35.5 199t-89 161t-169.5 66.5t-169 -66.5t-88.5 -161t-36 -199t-7.5 -180.5z" />
<glyph unicode="1" d="M152 1225v88l256 94h116v-1280h201v-127h-551v127h205v1118z" />
<glyph unicode="2" d="M66 0v129q45 100 92 175t101 138.5t119.5 124t149.5 131.5q80 68 140.5 146t60.5 186q0 49 -16.5 98.5t-47 87t-73.5 61t-98 23.5q-61 0 -107.5 -24.5t-81.5 -65.5t-57.5 -92t-34.5 -104l-129 37q20 74 54 142.5t85 120.5t118 82.5t153 30.5q162 0 268 -100t115 -264 q0 -109 -40 -194t-102.5 -157.5t-140.5 -138t-151.5 -133t-135 -143.5t-94.5 -170h666v-127h-813z" />
<glyph unicode="3" d="M45 236l111 67q57 -88 128.5 -147.5t186.5 -59.5q133 0 209 80t76 211q0 80 -29 134t-78 89t-113.5 50.5t-134.5 15.5q-23 0 -47 -2t-47 -6v137q25 -2 50.5 -3t50.5 -1q61 0 118.5 13t101.5 44t69.5 79t25.5 118q0 104 -66.5 177t-173.5 73q-100 0 -163.5 -48.5 t-118.5 -121.5l-105 73q72 92 166 152.5t213 66.5q78 0 148.5 -22.5t124 -65.5t85 -107.5t31.5 -150.5q0 -129 -50 -203.5t-159 -134.5q127 -51 185.5 -137t58.5 -227q0 -92 -32.5 -168t-91 -128t-137.5 -81t-169 -29q-150 0 -250 70t-174 193z" />
<glyph unicode="4" d="M43 336v123l502 942h198v-942h213v-123h-213v-336h-147v336h-553zM188 459h408v788z" />
<glyph unicode="5" d="M66 231l116 72q41 -84 106.5 -143.5t166.5 -59.5q78 0 131 33t88 86t50 118.5t15 133.5q0 57 -13 117.5t-42 110t-76 82t-114 36.5q-96 0 -163 -53t-116 -127l-111 22l46 742h643v-125h-523l-32 -445q51 55 109.5 86t135.5 31q100 0 176 -38t127.5 -103.5t77 -149.5 t25.5 -176q0 -98 -29 -189t-85 -163t-138 -114t-188 -42q-139 0 -228 70.5t-155 187.5z" />
<glyph unicode="6" d="M57 616q0 141 23.5 286t93.5 272q59 106 164.5 179.5t230.5 73.5q160 0 287 -90l-63 -108q-47 37 -98.5 58.5t-108.5 21.5q-113 0 -184.5 -61.5t-112.5 -151.5t-60.5 -194.5t-27.5 -190.5q57 78 136 128t171 54q98 0 175 -36t128 -97.5t77.5 -144.5t26.5 -177 q0 -90 -27.5 -174t-80.5 -148.5t-129 -103.5t-174 -39q-115 0 -209 56.5t-152 152.5q-55 94 -70.5 209.5t-15.5 224.5zM211 442l2 -4q8 -166 88 -251t205 -87q70 0 119 32t80.5 82t47 110.5t15.5 119.5q0 55 -13.5 112.5t-43 105t-75.5 77t-112 29.5t-123 -23.5t-99 -65.5 t-66.5 -102.5t-24.5 -134.5z" />
<glyph unicode="7" d="M100 1276v125h783v-105l-510 -1296h-170l530 1276h-633z" />
<glyph unicode="8" d="M37 362q0 147 85 235.5t204 150.5q-100 61 -167 135.5t-67 201.5q0 78 34 141.5t89 108.5t125 68.5t141 23.5q74 0 147.5 -22.5t132 -65.5t94.5 -107.5t36 -146.5q0 -127 -75 -206.5t-177 -130.5q61 -31 114.5 -66t93.5 -80t63.5 -102.5t23.5 -134.5q0 -94 -36 -167 t-96.5 -123t-140 -76t-169.5 -26q-92 0 -174 23.5t-144.5 72t-99.5 122t-37 171.5zM176 379q0 -133 90 -207t217 -74q123 0 216.5 65.5t93.5 198.5q0 70 -30 121.5t-77 88t-105.5 62t-115.5 44.5q-53 -20 -103.5 -45t-90.5 -59.5t-65.5 -83t-29.5 -111.5zM231 1087 q0 -53 25 -96t62.5 -76.5t84 -58.5t91.5 -41q104 33 180 92.5t76 179.5q0 113 -80 166.5t-181 53.5q-47 0 -93 -15.5t-83 -43t-59.5 -69t-22.5 -92.5z" />
<glyph unicode="9" d="M51 965q0 90 27.5 174t80 148.5t129.5 102t175 37.5q115 0 207 -60t149 -157q55 -94 72.5 -205.5t17.5 -216.5q0 -145 -23.5 -288.5t-92.5 -270.5q-59 -106 -165 -181t-231 -75q-162 0 -288 90l65 109q45 -33 94 -55.5t107 -22.5q113 0 184.5 60.5t114.5 150.5 t62.5 193.5t27.5 191.5q-59 -76 -131 -126t-174 -56q-100 0 -177 36t-128.5 98.5t-77 145.5t-25.5 177zM197 956q0 -55 12 -111.5t39.5 -102.5t73 -75.5t110.5 -29.5q59 0 107.5 22.5t89.5 58.5t73.5 82t57.5 93q-6 70 -20.5 141.5t-48.5 131t-89 97t-141 37.5 q-70 0 -120 -31.5t-82 -80.5t-47 -111t-15 -121z" />
<glyph unicode=":" horiz-adv-x="350" d="M84 0v211h182v-211h-182zM84 784v209h182v-209h-182z" />
<glyph unicode=";" horiz-adv-x="350" d="M57 -276l90 276h-61v211h182v-197l-121 -290h-90zM76 784v209h180v-209h-180z" />
<glyph unicode="&#x3c;" horiz-adv-x="1052" d="M66 639v129l909 428v-152l-748 -339l748 -343v-149z" />
<glyph unicode="=" horiz-adv-x="1073" d="M70 524v82h948v-82h-948zM70 819v82h948v-82h-948z" />
<glyph unicode="&#x3e;" horiz-adv-x="1052" d="M72 213v149l747 343l-747 339v152l909 -428v-129z" />
<glyph unicode="?" horiz-adv-x="679" d="M45 1227q41 84 109.5 142t169.5 58q119 0 193.5 -75.5t78.5 -194.5q0 -121 -50 -214t-126 -181q-70 -78 -84 -145.5t-14 -170.5h-111q-2 31 -2 60v59q0 86 39 154.5t84 133.5t84 132.5t39 153.5q0 57 -36 110.5t-102 53.5q-63 0 -99 -43t-62 -93zM174 0v211h180v-211 h-180z" />
<glyph unicode="@" horiz-adv-x="1488" d="M68 700q0 141 57 264t153.5 215.5t222.5 145.5t265 53q127 0 240.5 -42t199.5 -118.5t136.5 -184t50.5 -238.5q0 -88 -35 -175.5t-94.5 -156t-140.5 -111.5t-173 -43q-55 0 -92 32t-43 85q-45 -49 -101.5 -82t-123.5 -33q-113 0 -165 76t-52 178q0 78 29.5 164t82 159 t125 120t156.5 47q72 0 119 -37t73 -100l37 102l86 2l-170 -496q-6 -20 -12 -41.5t-6 -44.5q0 -33 21.5 -55.5t56.5 -22.5q78 0 143.5 41t112.5 104.5t73.5 140.5t26.5 149q0 117 -45 213t-122 164.5t-179 106.5t-217 38q-129 0 -242.5 -49t-198.5 -134t-135.5 -200 t-50.5 -244t45 -245.5t126 -205.5t192.5 -142.5t244.5 -53.5q164 0 315.5 80t231.5 225l70 -2q-39 -90 -105.5 -157.5t-149.5 -113.5t-177 -69.5t-189 -23.5q-147 0 -271 58t-213 156.5t-139 228.5t-50 273zM467 549q0 -31 6 -63.5t21.5 -59.5t40 -44t63.5 -17q53 0 92 20.5 t68.5 54t50 75.5t35.5 85q23 59 49.5 122.5t26.5 129.5q0 53 -38 100t-96 47q-72 0 -130 -48t-100 -116.5t-65.5 -146.5t-23.5 -139z" />
<glyph unicode="A" horiz-adv-x="1007" d="M2 0l395 1401h209l402 -1401h-152l-127 446h-455l-120 -446h-152zM313 578h379l-194 729z" />
<glyph unicode="B" horiz-adv-x="1030" d="M106 0v1399h300q90 0 183 -10.5t169 -45t126 -101t56 -181.5q0 -123 -53 -203t-174 -121q127 -45 195.5 -128t68.5 -220q0 -121 -40 -196.5t-109.5 -118.5t-162 -58.5t-194.5 -15.5h-53h-312zM254 127h178q74 0 144.5 5t125 28.5t88 73t33.5 137.5q0 100 -32.5 159.5 t-89 91t-131 41t-158.5 9.5h-158v-545zM254 799h154q63 0 132.5 6t127 30.5t94.5 72.5t37 130q0 84 -34 131.5t-87 70t-118.5 28.5t-129.5 6h-176v-475z" />
<glyph unicode="C" horiz-adv-x="1052" d="M63 711q0 119 26 245.5t85 231t156.5 172t238.5 67.5q96 0 169 -33.5t125 -91t86 -133t52 -161.5l-131 -31q-16 61 -37.5 118.5t-56.5 102.5t-85 72.5t-124 27.5q-109 0 -176 -60t-106 -150.5t-52.5 -192.5t-13.5 -186q0 -90 10.5 -195.5t45 -196t104.5 -152t188 -61.5 q70 0 121 29t88 75t61.5 103.5t41.5 116.5l135 -35q-20 -84 -56 -159.5t-89.5 -134t-127 -92.5t-168.5 -34q-156 0 -255 68t-156.5 174.5t-78 237.5t-20.5 258z" />
<glyph unicode="D" horiz-adv-x="1095" d="M106 0v1401h281q348 0 501.5 -181.5t153.5 -521.5t-158.5 -519t-508.5 -179h-269zM254 133h127q143 0 240.5 38t158 110.5t86 179t25.5 241.5q0 139 -23.5 246t-82 178.5t-156 108.5t-244.5 37h-131v-1139z" />
<glyph unicode="E" horiz-adv-x="944" d="M104 0v1401h760v-125h-612v-477h436v-127h-436v-545h655v-127h-803z" />
<glyph unicode="F" horiz-adv-x="833" d="M104 0v1401h707v-125h-559v-463h424v-127h-424v-686h-148z" />
<glyph unicode="G" horiz-adv-x="1118" d="M66 709q0 121 26.5 247.5t86 231t157.5 172t244 67.5q96 0 169.5 -31.5t129 -86t93.5 -128t60 -159.5l-143 -33q-16 61 -39 117.5t-58.5 100.5t-86 70t-121.5 26q-96 0 -172 -55.5t-121 -137.5q-47 -90 -60.5 -194.5t-13.5 -200.5q0 -92 13.5 -199.5t53.5 -200 t113.5 -154t192.5 -61.5q80 0 137 37t93 94.5t52.5 128t16.5 138.5v49h-291v125h434v-668h-127v135q-57 -76 -138 -121t-177 -45q-154 0 -255.5 68t-160.5 173t-83.5 236.5t-24.5 258.5z" />
<glyph unicode="H" horiz-adv-x="1095" d="M106 0v1401h148v-588h598v588h147v-1401h-147v686h-598v-686h-148z" />
<glyph unicode="I" horiz-adv-x="350" d="M102 0v1401h148v-1401h-148z" />
<glyph unicode="J" horiz-adv-x="612" d="M-129 178l133 68q12 -57 55 -96t103 -39q59 0 97 27.5t60.5 70.5t30.5 94t8 98v1000h148v-975q0 -86 -14.5 -168t-51.5 -145.5t-103.5 -101.5t-170.5 -38q-102 0 -180 55.5t-115 149.5z" />
<glyph unicode="K" horiz-adv-x="1052" d="M106 0v1401h148v-715l551 715h164l-396 -516l439 -885h-168l-371 754l-219 -283v-471h-148z" />
<glyph unicode="L" horiz-adv-x="854" d="M104 0v1401h148v-1274h598v-127h-746z" />
<glyph unicode="M" horiz-adv-x="1335" d="M106 0v1401h244l240 -871q20 -76 37.5 -153.5t31.5 -155.5q14 76 33 149.5t33 149.5l238 881h249v-1401h-147v1268l-344 -1268h-117l-350 1268v-1268h-148z" />
<glyph unicode="N" horiz-adv-x="1161" d="M102 0v1401h234l430 -832q43 -82 80 -170t74 -172q-8 88 -14.5 178.5t-6.5 180.5v815h148v-1401h-148l-508 987q-39 74 -73.5 148.5t-73.5 150.5q2 -88 4 -175t2 -175v-936h-148z" />
<glyph unicode="O" horiz-adv-x="1161" d="M70 702q0 117 23.5 245t80.5 234.5t153.5 176t241.5 69.5q141 0 239.5 -69.5t158 -176t86 -234.5t26.5 -245q0 -119 -25.5 -246.5t-85 -235t-157.5 -177.5t-242 -70q-145 0 -241.5 70t-153.5 177.5t-80.5 236t-23.5 245.5zM217 702q0 -113 15.5 -225t72.5 -213 q43 -74 111.5 -123t156.5 -49q113 0 183.5 63.5t109.5 155.5t52.5 198.5t13.5 192.5q0 84 -13.5 189.5t-52.5 198t-109.5 156t-183.5 63.5t-182 -63.5t-108 -156t-52.5 -198t-13.5 -189.5z" />
<glyph unicode="P" horiz-adv-x="985" d="M106 0v1401h265q96 0 193.5 -7.5t185.5 -50.5q90 -41 145 -129t55 -184q0 -117 -61.5 -221t-175.5 -143q-76 -25 -155 -30t-157 -5h-147v-631h-148zM254 756h145q70 0 141.5 8t130 33.5t95.5 76t37 136.5q0 96 -39 149t-99.5 79t-135 32t-148.5 6h-127v-520z" />
<glyph unicode="Q" horiz-adv-x="1138" d="M68 707q0 117 24.5 243.5t81.5 232t153.5 175t239.5 69.5q139 0 236.5 -68.5t158 -173t88 -230.5t27.5 -242q0 -119 -18.5 -238t-66.5 -219t-132 -174t-217 -102q16 -102 78.5 -140.5t161.5 -38.5h90v-129q-96 0 -175 5.5t-139.5 35t-101.5 91t-59 176.5 q-129 33 -212 105.5t-131.5 171.5t-67.5 215t-19 235zM215 700q0 -113 15.5 -224t72.5 -212q43 -74 111.5 -123t156.5 -49q113 0 183.5 62.5t109.5 155.5t52.5 198.5t13.5 191.5q0 84 -13.5 189.5t-52.5 199t-109.5 157t-183.5 63.5t-182.5 -63.5t-108 -157t-52 -199 t-13.5 -189.5z" />
<glyph unicode="R" horiz-adv-x="985" d="M109 0v1401h253q86 0 173.5 -6t171.5 -29q109 -35 175 -134t66 -212q0 -133 -69.5 -226.5t-194.5 -138.5l270 -655h-163l-261 637q-63 -6 -131 -6h-143v-631h-147zM256 756h150q74 0 145.5 6t126.5 32.5t89 81t34 150.5q0 80 -30 128t-79 75.5t-112.5 37t-126.5 9.5h-197 v-520z" />
<glyph unicode="S" d="M16 367l144 36q33 -123 115.5 -211t220.5 -88q117 0 192.5 73t75.5 188q0 90 -50 143t-126 91t-163 70.5t-163 81t-126 120t-50 190.5q0 82 33 150.5t88 115.5t127 73.5t151 26.5q86 0 153 -28.5t117 -77.5t86 -115.5t60 -140.5l-133 -43q-16 53 -37.5 102.5t-54.5 87 t-78 60t-109 22.5q-49 0 -96 -14t-85 -43t-60.5 -70t-22.5 -96q0 -84 51.5 -136t127 -90t164.5 -74t165 -87t127 -128t51 -200q0 -90 -33.5 -160.5t-90 -119.5t-132 -76t-161.5 -27q-201 0 -313 105t-165 289z" />
<glyph unicode="T" horiz-adv-x="899" d="M2 1276v125h901v-125h-379v-1276h-145v1276h-377z" />
<glyph unicode="U" horiz-adv-x="1095" d="M106 545v856h148v-860q0 -82 7 -160t37 -138.5t90.5 -96t164.5 -35.5t162.5 35.5t88.5 96t37 138.5t7 160v860h147v-856q0 -82 -4 -165t-33 -159q-23 -63 -65.5 -109t-97 -77t-117 -46.5t-125.5 -15.5t-127 15.5t-119 46.5t-97 77t-65 109q-27 78 -33 160t-6 164z" />
<glyph unicode="V" d="M0 1401h152l251 -895q23 -70 37.5 -139.5t32.5 -139.5q14 68 28.5 136.5t35.5 134.5l268 903h145l-413 -1401h-138z" />
<glyph unicode="W" horiz-adv-x="1400" d="M2 1401h141l174 -828l29 -155q14 -78 31 -154q14 76 29.5 154t31.5 153l193 830h135l174 -823q18 -78 35.5 -156t34.5 -158q14 80 29.5 160t33.5 156l182 821h140l-320 -1401h-139l-191 848q-31 156 -55 297l-28 -148q-14 -74 -31 -149l-193 -848h-141z" />
<glyph unicode="X" horiz-adv-x="985" d="M10 0l385 735l-356 666h158l194 -354q27 -47 45.5 -96.5t44.5 -94.5q23 53 47.5 104.5t51.5 102.5l180 338h155l-348 -666l396 -735h-170l-226 422q-23 45 -44 92l-42 94q-39 -92 -86 -184l-223 -424h-162z" />
<glyph unicode="Y" d="M-2 1401h154l247 -488q25 -47 48.5 -95t44.5 -97q20 51 42.5 99t47.5 98l233 483h148l-400 -813v-588h-147v588z" />
<glyph unicode="Z" horiz-adv-x="919" d="M43 0v113l637 1163h-574v125h748v-123l-631 -1151h631v-127h-811z" />
<glyph unicode="[" horiz-adv-x="438" d="M104 -266v1665h320v-121h-184v-1423h184v-121h-320z" />
<glyph unicode="\" horiz-adv-x="657" d="M-193 1399h125l861 -1665h-127z" />
<glyph unicode="]" horiz-adv-x="417" d="M4 -145h186v1423h-186v121h320v-1665h-320v121z" />
<glyph unicode="^" horiz-adv-x="616" d="M72 1108l194 258h105l194 -258h-141l-105 141l-110 -141h-137z" />
<glyph unicode="_" horiz-adv-x="1181" d="M78 -154h1050v-100h-1050v100z" />
<glyph unicode="`" horiz-adv-x="307" d="M0 1366h166l127 -258h-103z" />
<glyph unicode="a" horiz-adv-x="833" d="M45 266q0 106 58.5 175t143.5 114t183 70.5t178 46.5q0 10 1 23.5t1 23.5q0 84 -52 136t-138 52q-82 0 -140.5 -49t-103.5 -113l-98 74q66 88 145.5 144.5t194.5 56.5q90 0 176 -42t125 -128q20 -45 24.5 -93t4.5 -98v-397q0 -66 3 -131t25 -131h-151q-6 33 -10.5 63.5 t-6.5 63.5q-59 -53 -126.5 -97t-149.5 -44q-127 0 -207 75.5t-80 204.5zM176 281q0 -63 40 -116.5t110 -53.5q86 0 157.5 44t124.5 107v297q-53 -16 -125.5 -34.5t-138 -49.5t-114 -76.5t-54.5 -117.5z" />
<glyph unicode="b" horiz-adv-x="919" d="M104 0v1399h142v-496q49 47 104.5 80t124.5 37q104 0 178 -47t121 -122t68.5 -167t21.5 -182q0 -88 -19.5 -179.5t-63.5 -166t-115.5 -122.5t-176.5 -48q-76 0 -137 35.5t-106 95.5v-117h-142zM246 276q41 -63 100.5 -121.5t140.5 -58.5q72 0 116 44t68.5 107.5t34 134.5 t9.5 124q0 55 -10.5 124.5t-37 130t-72.5 101.5t-118 41q-76 0 -134 -46t-97 -105v-476z" />
<glyph unicode="c" horiz-adv-x="833" d="M47 477q0 88 20.5 184.5t66.5 176.5t119 132t179 52q131 0 209 -67.5t123 -184.5l-117 -51q-31 76 -75 132t-138 56q-78 0 -125 -46t-71.5 -111.5t-32.5 -140t-8 -132.5q0 -59 12 -126.5t42 -124t79 -94.5t123 -38q88 0 141 62.5t86 134.5l115 -51 q-51 -104 -135.5 -185.5t-210.5 -81.5q-102 0 -178 44t-125.5 116t-74 162t-24.5 182z" />
<glyph unicode="d" horiz-adv-x="899" d="M45 518q0 80 22.5 167t67.5 158.5t114.5 118t162.5 46.5q74 0 135 -34t112 -83v508h142v-1399h-142v113q-51 -59 -110.5 -93t-140.5 -34q-86 0 -162 48t-119 120q-53 84 -67.5 176t-14.5 188zM193 522q0 -84 8 -170t57 -157q31 -41 73 -70t95 -29q82 0 140.5 56.5 t92.5 121.5v461q-37 63 -96 108.5t-135 45.5q-68 0 -113 -38t-72.5 -93.5t-38.5 -119t-11 -116.5z" />
<glyph unicode="e" horiz-adv-x="854" d="M59 475q0 90 20.5 186.5t65.5 176.5t120 132t181 52q90 0 158 -38t113 -99.5t68.5 -140t23.5 -160.5v-111h-600q0 -63 11 -131t41 -123t81 -90t131 -35t141.5 51.5t100.5 116.5l102 -69q-59 -92 -137 -154t-199 -66q-109 0 -187.5 41t-130.5 111t-78 161t-26 189z M211 596h451q-2 47 -14.5 101.5t-38 100.5t-65.5 76.5t-98 30.5q-61 0 -104 -28.5t-70.5 -73.5t-42 -100.5t-18.5 -106.5z" />
<glyph unicode="f" horiz-adv-x="483" d="M-2 877v116h152v127q0 137 56 216t206 79q18 0 37.5 -2t37.5 -2v-127q-47 10 -88 10q-78 -8 -93 -54t-15 -110v-137h182v-116h-182v-877h-141v877h-152z" />
<glyph unicode="g" horiz-adv-x="854" d="M8 -94q0 78 56.5 122t117.5 72q-47 18 -85 51t-38 87q0 53 40 96t83 69q-51 61 -78.5 126t-27.5 147q0 70 26.5 130t72.5 105t107.5 71t129.5 26q121 0 227 -72q53 39 105.5 57.5t119.5 18.5v-123h-61q-45 0 -90 -23q51 -82 57 -182q0 -72 -22.5 -137.5t-65.5 -115.5 t-104.5 -79.5t-139.5 -29.5q-41 0 -82 8t-80 20q-25 -12 -54 -33.5t-29 -54.5t29.5 -43t56.5 -12q74 -10 171 -16.5t185 -31t151.5 -76.5t67.5 -155q0 -84 -39 -137t-100.5 -83t-135 -41t-141.5 -11q-59 0 -134 9t-140.5 36t-110.5 76t-45 129zM147 -94q0 -49 34 -76t82 -39 t98.5 -15t82.5 -3q37 0 85.5 4t92.5 19.5t73.5 44t29.5 79.5q0 53 -47 81t-110.5 40t-129 14t-104.5 6q-31 -6 -63.5 -17t-60.5 -29.5t-45.5 -45t-17.5 -63.5zM209 674q0 -102 54 -174t165 -72q100 0 155.5 71.5t55.5 166.5q0 96 -53.5 166.5t-157.5 70.5 q-92 0 -155.5 -67.5t-63.5 -161.5z" />
<glyph unicode="h" horiz-adv-x="899" d="M109 0v1401h141v-510q59 49 124.5 90t147.5 41q84 0 134.5 -33t77 -85t34.5 -118.5t8 -132.5v-653h-139v672q0 35 -2 77t-14.5 76.5t-39 58t-75.5 23.5q-74 0 -141.5 -50t-114.5 -101v-756h-141z" />
<glyph unicode="i" horiz-adv-x="350" d="M109 0v993h141v-993h-141zM109 1245v156h141v-156h-141z" />
<glyph unicode="j" horiz-adv-x="307" d="M-70 -217q10 -2 22.5 -3t24.5 -3q72 0 88.5 35.5t16.5 99.5v1081h141v-1075q0 -55 -9 -103t-31.5 -85t-63.5 -58.5t-105 -21.5q-23 0 -43 1t-41 5v127zM82 1245v154h141v-154h-141z" />
<glyph unicode="k" horiz-adv-x="833" d="M106 0v1401h142v-866l370 458h154l-272 -340l315 -653h-153l-252 541l-162 -201v-340h-142z" />
<glyph unicode="l" horiz-adv-x="350" d="M106 0v1401h142v-1401h-142z" />
<glyph unicode="m" horiz-adv-x="1445" d="M106 0v993h142v-88q57 45 118.5 79t135.5 38q88 0 151.5 -32t108.5 -103q68 53 142.5 93t162.5 40q80 0 128 -26.5t75.5 -73t37 -106.5t9.5 -128v-686h-141v692q0 37 -5.5 75t-19.5 68.5t-41 51t-70 20.5q-78 0 -141 -41t-115 -90v-776h-139v678q0 39 -6 80t-22.5 72.5 t-47 52t-80.5 20.5q-72 0 -131 -40t-110 -87v-776h-142z" />
<glyph unicode="n" horiz-adv-x="899" d="M106 0v993h142v-102q59 49 124.5 90t147.5 41q84 0 134.5 -33t77 -85t34.5 -118.5t8 -132.5v-653h-139v672q0 35 -2 77t-14.5 76.5t-39 58t-75.5 23.5q-74 0 -141.5 -50t-114.5 -101v-756h-142z" />
<glyph unicode="o" horiz-adv-x="899" d="M45 498q0 96 20.5 189t66.5 168t122 121t186 46q113 0 189 -46t123 -121t67.5 -168t20.5 -189t-20.5 -190.5t-66.5 -168t-123 -120t-190 -46.5q-111 0 -186.5 46.5t-121.5 121t-66.5 168t-20.5 189.5zM186 502q0 -63 9.5 -135t37 -132.5t77.5 -100.5t130 -40t130.5 40 t78 100.5t36.5 132t9 135.5q0 63 -9 135t-36.5 132t-77 100t-131.5 40q-80 0 -129 -40t-76.5 -100t-38 -132t-10.5 -135z" />
<glyph unicode="p" horiz-adv-x="919" d="M106 -309v1302h142v-106q49 55 109.5 94t136.5 39q104 0 175.5 -48t114.5 -125t61.5 -169t18.5 -182q0 -86 -20.5 -176.5t-65.5 -164t-115.5 -121.5t-170.5 -48q-74 0 -133.5 32.5t-110.5 79.5v-407h-142zM248 260q39 -59 93 -105t130 -46t123 42t74.5 104t38 133 t10.5 130q0 55 -8.5 124t-33 128t-69.5 100t-119 41q-82 0 -140 -57t-99 -119v-475z" />
<glyph unicode="q" horiz-adv-x="899" d="M43 510q0 100 22.5 206.5t90.5 182.5q45 51 107.5 86t131.5 35q94 0 150.5 -37t116.5 -100v110h141v-1302h-141v418q-49 -49 -106.5 -86t-131.5 -37q-104 0 -177 49t-118 125t-65.5 169t-20.5 181zM186 518q0 -59 11.5 -131t39 -133t75.5 -103t124 -42t132.5 45t93.5 104 v471q-43 66 -102.5 121t-143.5 55q-68 0 -113 -41t-70.5 -100t-36 -127t-10.5 -119z" />
<glyph unicode="r" horiz-adv-x="591" d="M104 0v993h142v-211q20 41 45.5 81t58.5 72t73 52.5t91 20.5h32q15 0 32 -2v-125q-74 0 -126.5 -27t-90 -71t-65.5 -101t-50 -119v-563h-142z" />
<glyph unicode="s" horiz-adv-x="745" d="M2 180l111 70q47 -76 106.5 -117t155.5 -41q76 0 134 42t58 126q0 61 -39 97t-96 61.5t-125.5 48t-126 56.5t-96.5 85t-39 133q0 127 90 204t213 77q111 0 188.5 -42t143.5 -130l-100 -78q-43 59 -94.5 98t-133.5 39q-68 0 -123 -39t-55 -114q0 -57 39 -93t98.5 -60.5 t127 -48.5t127 -56.5t98 -85t38.5 -133.5q0 -72 -27.5 -128.5t-74.5 -96.5t-109.5 -60.5t-130.5 -20.5q-121 0 -206.5 56.5t-151.5 150.5z" />
<glyph unicode="t" horiz-adv-x="503" d="M-2 877v118h156v322h141v-322h221v-118h-221v-658q0 -59 17.5 -94t86.5 -35q59 0 117 12v-112q-35 -8 -72.5 -13.5t-72.5 -5.5q-127 0 -172 69t-45 185v652h-156z" />
<glyph unicode="u" horiz-adv-x="899" d="M106 340v655h142v-671q0 -37 4 -78t18.5 -75t42 -55.5t76.5 -21.5q72 0 136.5 46t109.5 98v757h139v-995h-139v104q-59 -51 -126 -91t-149 -40t-132 33t-76.5 85t-36 117.5t-9.5 131.5z" />
<glyph unicode="v" horiz-adv-x="765" d="M-2 993h137l195 -655q14 -51 30.5 -103.5t30.5 -103.5q14 49 27.5 98.5t27.5 100.5l195 663h131l-280 -993h-203z" />
<glyph unicode="w" horiz-adv-x="1161" d="M4 993h137l140 -569q14 -57 27.5 -114.5t25.5 -114.5q14 57 24.5 114.5t26.5 114.5l143 569h129l142 -553q12 -61 25.5 -122.5t21.5 -122.5q12 63 24.5 124.5t26.5 124.5l139 549h135l-262 -993h-139l-133 545q-10 53 -24.5 107.5t-22.5 109.5q-10 -53 -22.5 -104.5 t-22.5 -102.5l-142 -555h-143z" />
<glyph unicode="x" horiz-adv-x="790" d="M0 0l293 522l-293 471h168l207 -348l194 348h148l-258 -471l325 -522h-174l-235 397l-221 -397h-154z" />
<glyph unicode="y" horiz-adv-x="790" d="M-2 995h143l269 -776l247 776h134l-334 -1054q-18 -57 -49 -108.5t-72 -90.5t-94.5 -61.5t-116.5 -22.5q-29 0 -56.5 5t-56.5 15l21 121q49 -16 86 -16q49 0 86 21.5t62.5 56.5t43 77t29.5 80z" />
<glyph unicode="z" horiz-adv-x="790" d="M49 0v102l492 775h-447v116h623v-88l-498 -786h498v-119h-668z" />
<glyph unicode="{" horiz-adv-x="503" d="M51 465v113q72 20 96.5 72t24.5 122v375q0 170 84 226.5t236 56.5q6 0 13 -1.5t13 -1.5v-131q-106 -2 -151 -43t-45 -155v-344q0 -80 -20.5 -138.5t-94.5 -99.5q72 -37 93.5 -99.5t21.5 -140.5v-333q0 -117 42 -161t154 -46v-127q-90 0 -155.5 10t-107.5 44t-62.5 95.5 t-20.5 163.5v338q0 74 -22.5 127t-98.5 78z" />
<glyph unicode="|" horiz-adv-x="483" d="M150 -350v1749h151v-1749h-151z" />
<glyph unicode="}" horiz-adv-x="548" d="M-2 -258q109 4 153 44t44 153v346q0 82 21.5 139t94.5 96q-72 41 -94 102.5t-22 139.5v334q0 117 -42 160.5t-155 46.5v127q90 0 155.5 -8.5t107.5 -41t62.5 -94t20.5 -170.5v-340q0 -74 22.5 -126t100.5 -75v-112q-72 -23 -97.5 -75t-25.5 -124v-370q0 -168 -81 -226.5 t-238 -58.5h-27v133z" />
<glyph unicode="~" horiz-adv-x="679" d="M45 1192q33 47 78 91t110 44q31 0 58.5 -10t55.5 -23.5t55.5 -23.5t58.5 -10q35 0 57.5 25.5t40.5 49.5l88 -43q-31 -49 -74 -97t-106 -48q-33 0 -61.5 10t-57.5 22.5t-57.5 23.5t-59.5 14q-39 0 -64.5 -25t-45.5 -55z" />
<glyph unicode="&#xa1;" horiz-adv-x="919" d="M-27 1401h152l256 -684q20 -55 34.5 -108.5t30.5 -106.5q16 51 32 104t36 103l260 692h146l-474 -1245q-41 -100 -113.5 -135t-146.5 -35q-33 0 -66.5 5t-62.5 11v113q59 -16 101 -17q55 0 93 21.5t62.5 56.5t39 81t20.5 95zM94 1757h117q31 -70 86 -120t143 -50 q92 0 147.5 50.5t84.5 119.5h116q-39 -104 -123.5 -177t-224.5 -73q-135 0 -219 73t-127 177z" />
<glyph unicode="&#x40e;" horiz-adv-x="919" d="M-27 1401h152l256 -684q20 -55 34.5 -108.5t30.5 -106.5q16 51 32 104t36 103l260 692h146l-474 -1245q-41 -100 -113.5 -135t-146.5 -35q-33 0 -66.5 5t-62.5 11v113q59 -16 101 -17q55 0 93 21.5t62.5 56.5t39 81t20.5 95zM94 1757h117q31 -70 86 -120t143 -50 q92 0 147.5 50.5t84.5 119.5h116q-39 -104 -123.5 -177t-224.5 -73q-135 0 -219 73t-127 177z" />
<glyph unicode="&#xa2;" horiz-adv-x="790" d="M-6 995h143l269 -776l247 776h133l-333 -1054q-18 -57 -49 -108.5t-72 -90.5t-94.5 -61.5t-118.5 -22.5q-29 0 -55.5 5t-55.5 15l21 121q49 -16 86 -16q49 0 86 21.5t62.5 56.5t43 77t29.5 80zM94 1364l66 61q14 -23 40.5 -48t58.5 -46.5t69 -36t71 -14.5l4 2 q53 2 124 44t110 97l63 -59q-18 -31 -51 -61.5t-72.5 -55t-85 -41t-85.5 -16.5l-7 -4q-51 0 -101 17.5t-92 43t-73 57t-39 60.5z" />
<glyph unicode="&#x45e;" horiz-adv-x="790" d="M-6 995h143l269 -776l247 776h133l-333 -1054q-18 -57 -49 -108.5t-72 -90.5t-94.5 -61.5t-118.5 -22.5q-29 0 -55.5 5t-55.5 15l21 121q49 -16 86 -16q49 0 86 21.5t62.5 56.5t43 77t29.5 80zM94 1364l66 61q14 -23 40.5 -48t58.5 -46.5t69 -36t71 -14.5l4 2 q53 2 124 44t110 97l63 -59q-18 -31 -51 -61.5t-72.5 -55t-85 -41t-85.5 -16.5l-7 -4q-51 0 -101 17.5t-92 43t-73 57t-39 60.5z" />
<glyph unicode="&#xa3;" horiz-adv-x="460" d="M-2 -217q10 -2 21.5 -3t25.5 -3q72 0 88.5 35.5t16.5 99.5v1081h141v-1075q0 -55 -9.5 -103t-32 -85t-63.5 -58.5t-104 -21.5q-20 0 -42 1t-42 5v127zM150 1245v154h141v-154h-141z" />
<glyph unicode="&#x408;" horiz-adv-x="460" d="M-2 -217q10 -2 21.5 -3t25.5 -3q72 0 88.5 35.5t16.5 99.5v1081h141v-1075q0 -55 -9.5 -103t-32 -85t-63.5 -58.5t-104 -21.5q-20 0 -42 1t-42 5v127zM150 1245v154h141v-154h-141z" />
<glyph unicode="&#xa4;" horiz-adv-x="1249" d="M37 1208l82 82l198 -196q72 49 141.5 78.5t159.5 29.5q82 0 154 -31.5t137 -76.5l199 196l82 -82l-195 -194q47 -66 76 -140.5t29 -156.5t-28 -155t-75 -138l197 -195l-82 -82l-197 193q-135 -104 -303 -104q-80 0 -154.5 30.5t-140.5 73.5l-192 -193l-82 82l190 195 q-47 63 -74.5 138t-27.5 157q0 84 28.5 155.5t76.5 137.5zM264 719q0 -72 27.5 -136.5t76 -112.5t113 -75.5t135.5 -27.5q72 0 135.5 27.5t111.5 75.5t76 112.5t28 136.5t-28 135.5t-76 111.5t-111.5 76.5t-135.5 28.5q-74 0 -137 -28.5t-111.5 -76.5t-76 -111.5 t-27.5 -135.5z" />
<glyph unicode="&#xa6;" horiz-adv-x="483" d="M150 322h151v-672h-151v672zM150 702v697h151v-697h-151z" />
<glyph unicode="&#xa7;" horiz-adv-x="919" d="M43 33l117 37q33 -104 98.5 -172t183.5 -68q43 0 86 11.5t78 34t56.5 57t21.5 83.5q0 82 -48 118t-114 65q-66 31 -145.5 65.5t-150 80.5t-118 109.5t-47.5 151.5q0 92 50.5 160t115.5 125q-57 49 -89 102.5t-32 132.5q0 70 29 126.5t76 95t108.5 59t129.5 20.5 q154 0 239.5 -88t126.5 -221l-123 -31q-29 90 -83 156t-160 66q-78 0 -145.5 -46t-67.5 -133q0 -63 46 -107t113.5 -79t148.5 -68.5t148.5 -78.5t113.5 -108.5t46 -158.5q0 -92 -44 -155.5t-116 -116.5q55 -47 93 -103.5t38 -131.5q0 -78 -32.5 -137.5t-86 -99.5t-122 -60.5 t-140.5 -20.5q-162 0 -260 90.5t-139 237.5zM182 639q0 -78 54.5 -130t119.5 -83l242 -111q55 33 95 83.5t40 119.5q0 76 -56 124t-116 77l-242 115q-49 -35 -91 -82t-46 -113z" />
<glyph unicode="&#xa8;" horiz-adv-x="944" d="M109 0v1401h759v-125h-612v-477h436v-127h-436v-545h655v-127h-802zM260 1509v154h141v-154h-141zM569 1509v154h140v-154h-140z" />
<glyph unicode="&#x401;" horiz-adv-x="944" d="M109 0v1401h759v-125h-612v-477h436v-127h-436v-545h655v-127h-802zM260 1509v154h141v-154h-141zM569 1509v154h140v-154h-140z" />
<glyph unicode="&#xa9;" horiz-adv-x="1576" d="M61 702q0 150 57.5 281t156 229.5t230.5 154.5t281 56q147 0 278.5 -57t230 -155.5t155.5 -229.5t57 -279q0 -150 -57 -281.5t-155.5 -230t-229.5 -156t-279 -57.5q-150 0 -281.5 57.5t-230 156t-156 230t-57.5 281.5zM145 702q0 -133 50.5 -250.5t137.5 -206.5 t203.5 -140.5t249.5 -51.5t249 51.5t202 140.5t136 206.5t50 250.5q0 131 -50 249t-136 206t-201.5 139.5t-249.5 51.5q-133 0 -249.5 -51.5t-203.5 -139.5t-137.5 -205t-50.5 -250zM389 698q0 88 27.5 168t80 139.5t127 94.5t169.5 35q66 0 128 -18.5t112 -55.5t84 -91.5 t42 -123.5h-82q-20 100 -104 151.5t-182 51.5q-74 0 -130.5 -29t-94.5 -78t-57.5 -112.5t-19.5 -131.5t19.5 -129t58.5 -107t95.5 -74t128.5 -28q123 0 203.5 71t95.5 192h81q-6 -78 -36.5 -142.5t-82 -110.5t-118 -72t-143.5 -26q-92 0 -167 34t-126.5 92.5t-80 135 t-28.5 164.5z" />
<glyph unicode="&#xaa;" horiz-adv-x="1052" d="M66 711q0 119 25.5 245.5t85 231t156.5 172t238 67.5q96 0 169 -33.5t125.5 -91t86 -133t52.5 -161.5l-132 -31q-16 61 -37.5 118.5t-56.5 102.5t-85 72.5t-124 27.5q-92 0 -154.5 -45t-102.5 -115.5t-59.5 -156.5t-25.5 -168l451 -2v-125h-455q0 -88 11.5 -190.5 t47 -189.5t104.5 -144.5t183 -57.5q70 0 121 29t88 75t61.5 103.5t41.5 116.5l135 -35q-20 -84 -55 -159.5t-89.5 -134t-127 -92.5t-169.5 -34q-158 0 -256 68t-155.5 174.5t-77.5 237.5t-20 258z" />
<glyph unicode="&#x404;" horiz-adv-x="1052" d="M66 711q0 119 25.5 245.5t85 231t156.5 172t238 67.5q96 0 169 -33.5t125.5 -91t86 -133t52.5 -161.5l-132 -31q-16 61 -37.5 118.5t-56.5 102.5t-85 72.5t-124 27.5q-92 0 -154.5 -45t-102.5 -115.5t-59.5 -156.5t-25.5 -168l451 -2v-125h-455q0 -88 11.5 -190.5 t47 -189.5t104.5 -144.5t183 -57.5q70 0 121 29t88 75t61.5 103.5t41.5 116.5l135 -35q-20 -84 -55 -159.5t-89.5 -134t-127 -92.5t-169.5 -34q-158 0 -256 68t-155.5 174.5t-77.5 237.5t-20 258z" />
<glyph unicode="&#xab;" horiz-adv-x="702" d="M78 516l211 254h139l-209 -254l209 -254h-139zM344 516l211 254h139l-211 -254l211 -254h-139z" />
<glyph unicode="&#xac;" horiz-adv-x="1095" d="M76 446v134h909v-580h-147v446h-762z" />
<glyph unicode="&#xad;" horiz-adv-x="569" d="M98 453v133h369v-133h-369z" />
<glyph unicode="&#xae;" horiz-adv-x="1576" d="M68 702q0 150 57 281t155.5 229.5t230.5 154.5t282 56t280.5 -57t229 -155.5t154.5 -229.5t56 -279q0 -150 -56 -281.5t-154.5 -230t-229.5 -156t-280 -57.5q-150 0 -282 57.5t-230.5 156t-155.5 230t-57 281.5zM152 702q0 -133 50 -250.5t137 -206.5t203.5 -140.5 t250.5 -51.5q133 0 248.5 51.5t201.5 140.5t136.5 206.5t50.5 250.5t-50.5 250t-136.5 205t-201.5 139.5t-248.5 51.5t-250 -51.5t-204 -139.5t-137 -205t-50 -250zM481 281v829h346q53 0 105.5 -11.5t93.5 -37t67.5 -68.5t26.5 -104q0 -78 -40 -130t-111 -79 q76 -25 101.5 -71t29.5 -101t4 -114.5t26 -112.5h-96q-12 20 -15 44.5t-5 47.5q-4 66 -6 117t-19.5 85.5t-62.5 52t-135 17.5h-211v-364h-99zM580 713h213q88 0 157.5 32.5t69.5 137.5q0 94 -65.5 125.5t-143.5 31.5h-231v-327z" />
<glyph unicode="&#xaf;" horiz-adv-x="854" d="M-223 1632v154h141v-154h-141zM-70 123v1401h148v-1401h-148zM86 1632v154h139v-154h-139z" />
<glyph unicode="&#xb0;" horiz-adv-x="790" d="M100 1120q0 131 85 218t216 87q135 0 213 -92t78 -221q0 -137 -77.5 -228t-219.5 -91q-145 0 -220 96t-75 231zM195 1114q0 -47 11 -92t35.5 -80t62.5 -55.5t91 -20.5q109 0 155 76t46 172q0 92 -47 167t-150 75q-102 0 -153 -75t-51 -167z" />
<glyph unicode="&#xb2;" horiz-adv-x="483" d="M156 0v1401h147v-1401h-147z" />
<glyph unicode="&#x406;" horiz-adv-x="483" d="M156 0v1401h147v-1401h-147z" />
<glyph unicode="&#xb3;" horiz-adv-x="417" d="M139 0v993h140v-993h-140zM139 1245v156h140v-156h-140z" />
<glyph unicode="&#x456;" horiz-adv-x="417" d="M139 0v993h140v-993h-140zM139 1245v156h140v-156h-140z" />
<glyph unicode="&#xb6;" d="M2 1028q0 104 37 175t99.5 115t145.5 63.5t173 19.5h491v-70h-125v-1569h-84v1569h-231v-1569h-84v895q-86 0 -163 24t-134 70t-91 115.5t-34 161.5z" />
<glyph unicode="&#xb8;" horiz-adv-x="956" d="M98 475q0 90 20.5 186.5t66.5 176.5t120 132t182 52q90 0 157 -38t113 -99.5t68.5 -140t22.5 -160.5v-111h-600q0 -63 12 -131t42 -123t81 -90t129 -35q82 0 142.5 51.5t99.5 116.5l102 -69q-59 -92 -138 -154t-198 -66q-106 0 -186 41t-132 111t-78 161t-26 189z M250 596h452q-2 47 -14 101.5t-37.5 100.5t-65.5 76.5t-98 30.5q-61 0 -104 -28.5t-71.5 -73.5t-43 -100.5t-18.5 -106.5zM258 1135v153h141v-153h-141zM567 1135v153h140v-153h-140z" />
<glyph unicode="&#x451;" horiz-adv-x="956" d="M98 475q0 90 20.5 186.5t66.5 176.5t120 132t182 52q90 0 157 -38t113 -99.5t68.5 -140t22.5 -160.5v-111h-600q0 -63 12 -131t42 -123t81 -90t129 -35q82 0 142.5 51.5t99.5 116.5l102 -69q-59 -92 -138 -154t-198 -66q-106 0 -186 41t-132 111t-78 161t-26 189z M250 596h452q-2 47 -14 101.5t-37.5 100.5t-65.5 76.5t-98 30.5q-61 0 -104 -28.5t-71.5 -73.5t-43 -100.5t-18.5 -106.5zM258 1135v153h141v-153h-141zM567 1135v153h140v-153h-140z" />
<glyph unicode="&#xb9;" horiz-adv-x="1861" d="M109 0v1401h233l430 -832q43 -82 80 -170t74 -172q-8 88 -14.5 178.5t-6.5 180.5v385q0 4 -1 6t-1 4q0 207 100.5 324.5t278.5 117.5h184v-137h-182q-111 0 -171 -80t-60 -211v-995h-148l-508 987q-39 74 -73.5 148.5t-73.5 150.5q2 -88 4 -175t2 -175v-936h-147zM1196 4 v76h610v-76h-610zM1206 510q0 131 84 219t215 88q137 0 215 -93t78 -222q0 -135 -78 -227.5t-221 -92.5q-72 0 -126 27t-91 71t-56.5 103t-19.5 127zM1300 504q0 -94 46.5 -171t152.5 -77q55 0 93 20.5t62.5 55.5t36 80t11.5 92q0 94 -48 167.5t-151 73.5 q-102 0 -152.5 -73.5t-50.5 -167.5z" />
<glyph unicode="&#x2116;" horiz-adv-x="1861" d="M109 0v1401h233l430 -832q43 -82 80 -170t74 -172q-8 88 -14.5 178.5t-6.5 180.5v385q0 4 -1 6t-1 4q0 207 100.5 324.5t278.5 117.5h184v-137h-182q-111 0 -171 -80t-60 -211v-995h-148l-508 987q-39 74 -73.5 148.5t-73.5 150.5q2 -88 4 -175t2 -175v-936h-147zM1196 4 v76h610v-76h-610zM1206 510q0 131 84 219t215 88q137 0 215 -93t78 -222q0 -135 -78 -227.5t-221 -92.5q-72 0 -126 27t-91 71t-56.5 103t-19.5 127zM1300 504q0 -94 46.5 -171t152.5 -77q55 0 93 20.5t62.5 55.5t36 80t11.5 92q0 94 -48 167.5t-151 73.5 q-102 0 -152.5 -73.5t-50.5 -167.5z" />
<glyph unicode="&#xba;" horiz-adv-x="833" d="M43 477q0 88 20.5 184.5t66.5 176.5t119 132t179 52q131 0 209 -67.5t123 -184.5l-117 -51q-31 76 -75 132t-138 56q-61 0 -103 -29.5t-68 -75.5t-40 -103.5t-20 -112.5h315v-117h-321q0 -57 12 -122.5t41.5 -122t79 -93.5t120.5 -37q90 0 143.5 62.5t86.5 134.5l115 -51 q-51 -104 -136.5 -185.5t-210.5 -81.5q-102 0 -178 44t-125 116t-73.5 162t-24.5 182z" />
<glyph unicode="&#x454;" horiz-adv-x="833" d="M43 477q0 88 20.5 184.5t66.5 176.5t119 132t179 52q131 0 209 -67.5t123 -184.5l-117 -51q-31 76 -75 132t-138 56q-61 0 -103 -29.5t-68 -75.5t-40 -103.5t-20 -112.5h315v-117h-321q0 -57 12 -122.5t41.5 -122t79 -93.5t120.5 -37q90 0 143.5 62.5t86.5 134.5l115 -51 q-51 -104 -136.5 -185.5t-210.5 -81.5q-102 0 -178 44t-125 116t-73.5 162t-24.5 182z" />
<glyph unicode="&#xbb;" horiz-adv-x="657" d="M8 262l211 254l-211 254h142l208 -254l-208 -254h-142zM274 262l211 254l-211 254h140l213 -254l-213 -254h-140z" />
<glyph unicode="&#xbc;" horiz-adv-x="329" d="M-49 -217q12 -2 23.5 -3t23.5 -3q72 0 88 35.5t16 99.5v1081h142v-1075q0 -55 -8.5 -103t-32 -85t-64.5 -58.5t-104 -21.5q-23 0 -43.5 1t-40.5 5v127zM102 1245v154h142v-154h-142z" />
<glyph unicode="&#x458;" horiz-adv-x="329" d="M-49 -217q12 -2 23.5 -3t23.5 -3q72 0 88 35.5t16 99.5v1081h142v-1075q0 -55 -8.5 -103t-32 -85t-64.5 -58.5t-104 -21.5q-23 0 -43.5 1t-40.5 5v127zM102 1245v154h142v-154h-142z" />
<glyph unicode="&#xbd;" d="M16 367l144 36q33 -123 115.5 -211t220.5 -88q117 0 192.5 73t75.5 188q0 90 -50 143t-126 91t-163 70.5t-163 81t-126 120t-50 190.5q0 82 33 150.5t88 115.5t127 73.5t151 26.5q86 0 153 -28.5t117 -77.5t86 -115.5t60 -140.5l-133 -43q-16 53 -37.5 102.5t-54.5 87 t-78 60t-109 22.5q-49 0 -96 -14t-85 -43t-60.5 -70t-22.5 -96q0 -84 51.5 -136t127 -90t164.5 -74t165 -87t127 -128t51 -200q0 -90 -33.5 -160.5t-90 -119.5t-132 -76t-161.5 -27q-201 0 -313 105t-165 289z" />
<glyph unicode="&#x405;" d="M16 367l144 36q33 -123 115.5 -211t220.5 -88q117 0 192.5 73t75.5 188q0 90 -50 143t-126 91t-163 70.5t-163 81t-126 120t-50 190.5q0 82 33 150.5t88 115.5t127 73.5t151 26.5q86 0 153 -28.5t117 -77.5t86 -115.5t60 -140.5l-133 -43q-16 53 -37.5 102.5t-54.5 87 t-78 60t-109 22.5q-49 0 -96 -14t-85 -43t-60.5 -70t-22.5 -96q0 -84 51.5 -136t127 -90t164.5 -74t165 -87t127 -128t51 -200q0 -90 -33.5 -160.5t-90 -119.5t-132 -76t-161.5 -27q-201 0 -313 105t-165 289z" />
<glyph unicode="&#xbe;" horiz-adv-x="722" d="M2 180l111 70q47 -76 106.5 -117t155.5 -41q76 0 134 42t58 126q0 61 -39 97t-96 61.5t-125.5 48t-126 56.5t-96.5 85t-39 133q0 127 90 204t213 77q111 0 188.5 -42t143.5 -130l-100 -78q-43 59 -94.5 98t-133.5 39q-68 0 -123 -39t-55 -114q0 -57 39 -93t98.5 -60.5 t127 -48.5t127 -56.5t98 -85t38.5 -133.5q0 -72 -27.5 -128.5t-74.5 -96.5t-109.5 -60.5t-130.5 -20.5q-121 0 -206.5 56.5t-151.5 150.5z" />
<glyph unicode="&#x455;" horiz-adv-x="722" d="M2 180l111 70q47 -76 106.5 -117t155.5 -41q76 0 134 42t58 126q0 61 -39 97t-96 61.5t-125.5 48t-126 56.5t-96.5 85t-39 133q0 127 90 204t213 77q111 0 188.5 -42t143.5 -130l-100 -78q-43 59 -94.5 98t-133.5 39q-68 0 -123 -39t-55 -114q0 -57 39 -93t98.5 -60.5 t127 -48.5t127 -56.5t98 -85t38.5 -133.5q0 -72 -27.5 -128.5t-74.5 -96.5t-109.5 -60.5t-130.5 -20.5q-121 0 -206.5 56.5t-151.5 150.5z" />
<glyph unicode="&#xbf;" horiz-adv-x="438" d="M0 1245v156h141v-156h-141zM139 0v993h140v-993h-140zM276 1245v156h142v-156h-142z" />
<glyph unicode="&#x457;" horiz-adv-x="438" d="M0 1245v156h141v-156h-141zM139 0v993h140v-993h-140zM276 1245v156h142v-156h-142z" />
<glyph unicode="&#xc0;" horiz-adv-x="1032" d="M20 0l396 1401h211l401 -1401h-151l-129 446h-453l-123 -446h-152zM332 578h381l-197 729z" />
<glyph unicode="&#x410;" horiz-adv-x="1032" d="M20 0l396 1401h211l401 -1401h-151l-129 446h-453l-123 -446h-152zM332 578h381l-197 729z" />
<glyph unicode="&#xc1;" horiz-adv-x="1007" d="M102 0v1401h789v-125h-641v-463h141q88 0 177 -7t180 -48q88 -41 145 -131t57 -217q0 -131 -57 -221.5t-148 -131.5q-94 -43 -189 -50t-191 -7h-263zM250 127h127q84 0 160.5 7t134 35t93.5 83t36 154q0 94 -32 149t-89 85t-135 38t-168 8h-127v-559z" />
<glyph unicode="&#x411;" horiz-adv-x="1007" d="M102 0v1401h789v-125h-641v-463h141q88 0 177 -7t180 -48q88 -41 145 -131t57 -217q0 -131 -57 -221.5t-148 -131.5q-94 -43 -189 -50t-191 -7h-263zM250 127h127q84 0 160.5 7t134 35t93.5 83t36 154q0 94 -32 149t-89 85t-135 38t-168 8h-127v-559z" />
<glyph unicode="&#xc2;" horiz-adv-x="1030" d="M102 0v1399h330q113 0 206 -10.5t159.5 -46t102.5 -102t36 -179.5q0 -57 -17.5 -114.5t-55.5 -102.5t-95 -75t-137 -32q193 -16 268.5 -113.5t75.5 -234.5q0 -121 -41 -196.5t-110.5 -118.5t-162 -58.5t-194.5 -15.5h-365zM250 127h178q4 0 10 -1t11 -1q82 0 149.5 9 t116.5 35t75.5 74t26.5 128q0 100 -31.5 159.5t-87 91t-130 41t-160.5 9.5h-158v-545zM250 799h153q2 0 6.5 -1t8.5 -1q168 0 267 51t99 205q0 76 -22.5 120t-67.5 66.5t-111.5 28.5t-156.5 6h-176v-475z" />
<glyph unicode="&#x412;" horiz-adv-x="1030" d="M102 0v1399h330q113 0 206 -10.5t159.5 -46t102.5 -102t36 -179.5q0 -57 -17.5 -114.5t-55.5 -102.5t-95 -75t-137 -32q193 -16 268.5 -113.5t75.5 -234.5q0 -121 -41 -196.5t-110.5 -118.5t-162 -58.5t-194.5 -15.5h-365zM250 127h178q4 0 10 -1t11 -1q82 0 149.5 9 t116.5 35t75.5 74t26.5 128q0 100 -31.5 159.5t-87 91t-130 41t-160.5 9.5h-158v-545zM250 799h153q2 0 6.5 -1t8.5 -1q168 0 267 51t99 205q0 76 -22.5 120t-67.5 66.5t-111.5 28.5t-156.5 6h-176v-475z" />
<glyph unicode="&#xc3;" horiz-adv-x="811" d="M102 0v1401h707v-125h-559v-1276h-148z" />
<glyph unicode="&#x413;" horiz-adv-x="811" d="M102 0v1401h707v-125h-559v-1276h-148z" />
<glyph unicode="&#xc4;" horiz-adv-x="1206" d="M2 115l53 6q45 6 92.5 69.5t47.5 151.5v1059h831v-1286h145v-424h-137v309h-891v-309h-141v424zM201 117h678v1167h-539v-848q0 -154 -33 -219t-82 -86z" />
<glyph unicode="&#x414;" horiz-adv-x="1206" d="M2 115l53 6q45 6 92.5 69.5t47.5 151.5v1059h831v-1286h145v-424h-137v309h-891v-309h-141v424zM201 117h678v1167h-539v-848q0 -154 -33 -219t-82 -86z" />
<glyph unicode="&#xc5;" horiz-adv-x="944" d="M106 0v1401h760v-125h-612v-477h436v-127h-436v-545h655v-127h-803z" />
<glyph unicode="&#x415;" horiz-adv-x="944" d="M106 0v1401h760v-125h-612v-477h436v-127h-436v-545h655v-127h-803z" />
<glyph unicode="&#xc6;" horiz-adv-x="1730" d="M-10 0q8 12 30.5 50t39 66.5t18.5 33.5q4 4 23.5 37.5t48 84t61.5 109.5t63 113q14 23 39 60.5t60 75.5t83 68.5t109 40.5q-41 8 -78.5 40t-70.5 55q-47 47 -78 114.5t-76 155.5t-94 128t-119 54v119q94 -4 170 -43t133 -145q47 -88 81 -156t48 -94q14 -31 47 -65 t74 -61.5t87 -46t85 -18.5q2 0 6 2t6 2v621h72h74v-621q2 0 4 -2t4 -2q39 0 86 18.5t89 46t75 61.5t47 65q16 27 49 94t80 156q57 106 132 145t171 43v-119q-70 -14 -118 -54t-95 -128q-45 -88 -75.5 -155.5t-77.5 -114.5q-33 -23 -71 -54.5t-79 -40.5q61 -10 109.5 -40.5 t83 -68.5t59.5 -76t39 -60q31 -53 63.5 -112.5t61 -110t48 -84t23.5 -37.5q2 -4 18.5 -33t39 -67t31.5 -50h-173l-165 299q-39 66 -77 129.5t-82 113.5t-99.5 82.5t-128.5 37.5h-72v-662h-146v662h-71q-74 -4 -129.5 -37t-99.5 -83t-81.5 -113.5t-76.5 -129.5l-166 -299 h-172z" />
<glyph unicode="&#x416;" horiz-adv-x="1730" d="M-10 0q8 12 30.5 50t39 66.5t18.5 33.5q4 4 23.5 37.5t48 84t61.5 109.5t63 113q14 23 39 60.5t60 75.5t83 68.5t109 40.5q-41 8 -78.5 40t-70.5 55q-47 47 -78 114.5t-76 155.5t-94 128t-119 54v119q94 -4 170 -43t133 -145q47 -88 81 -156t48 -94q14 -31 47 -65 t74 -61.5t87 -46t85 -18.5q2 0 6 2t6 2v621h72h74v-621q2 0 4 -2t4 -2q39 0 86 18.5t89 46t75 61.5t47 65q16 27 49 94t80 156q57 106 132 145t171 43v-119q-70 -14 -118 -54t-95 -128q-45 -88 -75.5 -155.5t-77.5 -114.5q-33 -23 -71 -54.5t-79 -40.5q61 -10 109.5 -40.5 t83 -68.5t59.5 -76t39 -60q31 -53 63.5 -112.5t61 -110t48 -84t23.5 -37.5q2 -4 18.5 -33t39 -67t31.5 -50h-173l-165 299q-39 66 -77 129.5t-82 113.5t-99.5 82.5t-128.5 37.5h-72v-662h-146v662h-71q-74 -4 -129.5 -37t-99.5 -83t-81.5 -113.5t-76.5 -129.5l-166 -299 h-172z" />
<glyph unicode="&#xc7;" horiz-adv-x="985" d="M16 322l125 65q59 -158 148.5 -226.5t195.5 -68.5q76 0 131.5 23.5t92 63.5t54 91.5t17.5 104.5q0 133 -78.5 215t-234.5 82h-131v119h125q113 0 192.5 67.5t79.5 206.5q0 43 -16.5 85t-47 77t-77.5 56.5t-109 23.5q-57 0 -111.5 -26t-97.5 -63.5t-74.5 -84t-45.5 -86.5 l-115 63q25 53 65.5 109.5t97 102.5t127 75.5t154.5 29.5h4q88 0 161 -27.5t125 -76.5t81 -114.5t29 -141.5q0 -49 -15.5 -101.5t-47.5 -99.5t-81 -81.5t-116 -47.5q125 -14 213 -103t88 -257v-4q0 -80 -32 -150.5t-89.5 -125t-139 -85t-180.5 -30.5q-160 0 -272.5 84 t-194.5 256z" />
<glyph unicode="&#x417;" horiz-adv-x="985" d="M16 322l125 65q59 -158 148.5 -226.5t195.5 -68.5q76 0 131.5 23.5t92 63.5t54 91.5t17.5 104.5q0 133 -78.5 215t-234.5 82h-131v119h125q113 0 192.5 67.5t79.5 206.5q0 43 -16.5 85t-47 77t-77.5 56.5t-109 23.5q-57 0 -111.5 -26t-97.5 -63.5t-74.5 -84t-45.5 -86.5 l-115 63q25 53 65.5 109.5t97 102.5t127 75.5t154.5 29.5h4q88 0 161 -27.5t125 -76.5t81 -114.5t29 -141.5q0 -49 -15.5 -101.5t-47.5 -99.5t-81 -81.5t-116 -47.5q125 -14 213 -103t88 -257v-4q0 -80 -32 -150.5t-89.5 -125t-139 -85t-180.5 -30.5q-160 0 -272.5 84 t-194.5 256z" />
<glyph unicode="&#xc8;" horiz-adv-x="1118" d="M106 0v1401h148v-1125l598 1125h147v-1401h-147v1124l-598 -1124h-148z" />
<glyph unicode="&#x418;" horiz-adv-x="1118" d="M106 0v1401h148v-1125l598 1125h147v-1401h-147v1124l-598 -1124h-148z" />
<glyph unicode="&#xc9;" horiz-adv-x="1118" d="M104 0v1401h148v-1125l598 1125h147v-1401h-147v1124l-598 -1124h-148zM186 1757h117q31 -70 87 -120t145 -50q90 0 145 50.5t84 119.5h117q-41 -104 -125 -177t-221 -73t-221.5 73t-127.5 177z" />
<glyph unicode="&#x419;" horiz-adv-x="1118" d="M104 0v1401h148v-1125l598 1125h147v-1401h-147v1124l-598 -1124h-148zM186 1757h117q31 -70 87 -120t145 -50q90 0 145 50.5t84 119.5h117q-41 -104 -125 -177t-221 -73t-221.5 73t-127.5 177z" />
<glyph unicode="&#xca;" horiz-adv-x="1007" d="M106 0v1401h148v-619h43q2 0 5 -1t5 -1q35 0 70 17.5t65.5 45t55 61.5t37.5 65q18 27 46.5 92t71.5 156q51 106 124 145t161 43v-119q-66 -14 -112 -53t-89 -129q-41 -84 -69.5 -153.5t-71.5 -114.5q-27 -25 -63.5 -56.5t-73.5 -40.5q57 -8 101 -38.5t76 -69.5t54.5 -76 t34.5 -57q29 -53 60.5 -112.5t57 -111t44 -86t22.5 -38.5q2 -4 17.5 -32t36 -66t28.5 -52h-162l-151 299q-37 66 -70 130.5t-73.5 115.5t-92 84t-125.5 35h-63v-664h-148z" />
<glyph unicode="&#x41a;" horiz-adv-x="1007" d="M106 0v1401h148v-619h43q2 0 5 -1t5 -1q35 0 70 17.5t65.5 45t55 61.5t37.5 65q18 27 46.5 92t71.5 156q51 106 124 145t161 43v-119q-66 -14 -112 -53t-89 -129q-41 -84 -69.5 -153.5t-71.5 -114.5q-27 -25 -63.5 -56.5t-73.5 -40.5q57 -8 101 -38.5t76 -69.5t54.5 -76 t34.5 -57q29 -53 60.5 -112.5t57 -111t44 -86t22.5 -38.5q2 -4 17.5 -32t36 -66t28.5 -52h-162l-151 299q-37 66 -70 130.5t-73.5 115.5t-92 84t-125.5 35h-63v-664h-148z" />
<glyph unicode="&#xcb;" horiz-adv-x="1118" d="M-25 -2v113l29 -2q4 0 8 -1.5t8 -1.5q45 0 71 15.5t38 39t14 52.5t2 53v1135h863v-1401h-146v1284h-586v-1073q0 -25 -6 -61.5t-28.5 -70.5t-65.5 -58.5t-115 -24.5h-27q-15 0 -30 2h-29z" />
<glyph unicode="&#x41b;" horiz-adv-x="1118" d="M-25 -2v113l29 -2q4 0 8 -1.5t8 -1.5q45 0 71 15.5t38 39t14 52.5t2 53v1135h863v-1401h-146v1284h-586v-1073q0 -25 -6 -61.5t-28.5 -70.5t-65.5 -58.5t-115 -24.5h-27q-15 0 -30 2h-29z" />
<glyph unicode="&#xcc;" horiz-adv-x="1314" d="M104 0v1401h244l240 -871q18 -76 36.5 -153.5t32.5 -155.5q14 76 33 149.5t33 149.5l238 881h249v-1401h-147v1268l-344 -1268h-117l-350 1268v-1268h-148z" />
<glyph unicode="&#x41c;" horiz-adv-x="1314" d="M104 0v1401h244l240 -871q18 -76 36.5 -153.5t32.5 -155.5q14 76 33 149.5t33 149.5l238 881h249v-1401h-147v1268l-344 -1268h-117l-350 1268v-1268h-148z" />
<glyph unicode="&#xcd;" horiz-adv-x="1095" d="M104 0v1401h148v-588h598v588h147v-1401h-147v686h-598v-686h-148z" />
<glyph unicode="&#x41d;" horiz-adv-x="1095" d="M104 0v1401h148v-588h598v588h147v-1401h-147v686h-598v-686h-148z" />
<glyph unicode="&#xce;" horiz-adv-x="1138" d="M68 702q0 117 25.5 245t85 234.5t156.5 176t238 69.5t238.5 -69.5t158 -176t86 -234.5t25.5 -245q0 -92 -14 -188t-49 -186q-25 -74 -65 -137.5t-94 -111.5t-124.5 -76t-161.5 -28q-90 0 -160.5 28t-126 76t-94 111.5t-65.5 137.5q-33 90 -46 186t-13 188zM215 702 q0 -84 11.5 -184t45.5 -190q39 -100 111 -168t190 -68q117 0 189 67.5t110 168.5q35 90 48.5 190t13.5 184t-14.5 189.5t-53.5 198t-109.5 156t-183.5 63.5t-183.5 -63.5t-109 -156t-52 -198t-13.5 -189.5z" />
<glyph unicode="&#x41e;" horiz-adv-x="1138" d="M68 702q0 117 25.5 245t85 234.5t156.5 176t238 69.5t238.5 -69.5t158 -176t86 -234.5t25.5 -245q0 -92 -14 -188t-49 -186q-25 -74 -65 -137.5t-94 -111.5t-124.5 -76t-161.5 -28q-90 0 -160.5 28t-126 76t-94 111.5t-65.5 137.5q-33 90 -46 186t-13 188zM215 702 q0 -84 11.5 -184t45.5 -190q39 -100 111 -168t190 -68q117 0 189 67.5t110 168.5q35 90 48.5 190t13.5 184t-14.5 189.5t-53.5 198t-109.5 156t-183.5 63.5t-183.5 -63.5t-109 -156t-52 -198t-13.5 -189.5z" />
<glyph unicode="&#xcf;" horiz-adv-x="1118" d="M106 0v1401h893v-1401h-147v1276h-598v-1276h-148z" />
<glyph unicode="&#x41f;" horiz-adv-x="1118" d="M106 0v1401h893v-1401h-147v1276h-598v-1276h-148z" />
<glyph unicode="&#xd0;" horiz-adv-x="985" d="M102 0v1401h263q96 0 194 -7.5t186 -50.5q90 -41 145.5 -129t55.5 -184q0 -117 -62.5 -221t-174.5 -143q-76 -25 -155 -30t-157 -5h-147v-631h-148zM250 756h145q70 0 141.5 8t130 33.5t95.5 76t37 136.5q0 96 -39 149t-99.5 79t-135 32t-148.5 6h-127v-520z" />
<glyph unicode="&#x420;" horiz-adv-x="985" d="M102 0v1401h263q96 0 194 -7.5t186 -50.5q90 -41 145.5 -129t55.5 -184q0 -117 -62.5 -221t-174.5 -143q-76 -25 -155 -30t-157 -5h-147v-631h-148zM250 756h145q70 0 141.5 8t130 33.5t95.5 76t37 136.5q0 96 -39 149t-99.5 79t-135 32t-148.5 6h-127v-520z" />
<glyph unicode="&#xd1;" horiz-adv-x="1052" d="M70 711q0 119 25.5 245.5t85 231t156.5 172t238 67.5q96 0 169 -33.5t125.5 -91t86 -133t52.5 -161.5l-131 -31q-16 61 -38 118.5t-56.5 102.5t-85 72.5t-124.5 27.5q-109 0 -176 -60t-106 -150.5t-52.5 -192.5t-13.5 -186q0 -90 10.5 -195.5t45 -196t104.5 -152 t188 -61.5q70 0 121 29t88 75t61.5 103.5t41.5 116.5l135 -35q-20 -84 -55 -159.5t-89.5 -134t-127 -92.5t-168.5 -34q-158 0 -256.5 68t-155.5 174.5t-77.5 237.5t-20.5 258z" />
<glyph unicode="&#x421;" horiz-adv-x="1052" d="M70 711q0 119 25.5 245.5t85 231t156.5 172t238 67.5q96 0 169 -33.5t125.5 -91t86 -133t52.5 -161.5l-131 -31q-16 61 -38 118.5t-56.5 102.5t-85 72.5t-124.5 27.5q-109 0 -176 -60t-106 -150.5t-52.5 -192.5t-13.5 -186q0 -90 10.5 -195.5t45 -196t104.5 -152 t188 -61.5q70 0 121 29t88 75t61.5 103.5t41.5 116.5l135 -35q-20 -84 -55 -159.5t-89.5 -134t-127 -92.5t-168.5 -34q-158 0 -256.5 68t-155.5 174.5t-77.5 237.5t-20.5 258z" />
<glyph unicode="&#xd2;" horiz-adv-x="899" d="M0 1276v125h901v-125h-379v-1276h-145v1276h-377z" />
<glyph unicode="&#x422;" horiz-adv-x="899" d="M0 1276v125h901v-125h-379v-1276h-145v1276h-377z" />
<glyph unicode="&#xd3;" horiz-adv-x="919" d="M-27 1401h152l256 -684q20 -55 34.5 -108.5t30.5 -106.5q16 51 32 104t36 103l260 692h146l-474 -1245q-41 -100 -113.5 -135t-146.5 -35q-33 0 -66.5 5t-62.5 11v113q59 -16 101 -17q55 0 93 21.5t62.5 56.5t39 81t20.5 95z" />
<glyph unicode="&#x423;" horiz-adv-x="919" d="M-27 1401h152l256 -684q20 -55 34.5 -108.5t30.5 -106.5q16 51 32 104t36 103l260 692h146l-474 -1245q-41 -100 -113.5 -135t-146.5 -35q-33 0 -66.5 5t-62.5 11v113q59 -16 101 -17q55 0 93 21.5t62.5 56.5t39 81t20.5 95z" />
<glyph unicode="&#xd4;" horiz-adv-x="1445" d="M66 705q0 123 33.5 222t92 167.5t137.5 105.5t169 37h161v164h144v-164h162q90 0 168.5 -37t137 -105.5t91.5 -168t33 -221.5v-17q-2 -152 -45 -250t-109.5 -156.5t-150.5 -81t-170 -22.5h-117v-178h-72h-72v178h-116q-86 0 -170 22.5t-150.5 81t-109.5 157t-45 249.5 q0 4 -1 8.5t-1 8.5zM215 705q0 -78 15.5 -152t53.5 -130t104.5 -91t166.5 -35h102v823h-147q-84 0 -141.5 -33.5t-91 -90t-48 -132t-14.5 -159.5zM805 297h102q100 0 166 35t105 91t54 130t15 152q0 84 -14 159.5t-49 132t-91.5 90t-140.5 33.5h-147v-823z" />
<glyph unicode="&#x424;" horiz-adv-x="1445" d="M66 705q0 123 33.5 222t92 167.5t137.5 105.5t169 37h161v164h144v-164h162q90 0 168.5 -37t137 -105.5t91.5 -168t33 -221.5v-17q-2 -152 -45 -250t-109.5 -156.5t-150.5 -81t-170 -22.5h-117v-178h-72h-72v178h-116q-86 0 -170 22.5t-150.5 81t-109.5 157t-45 249.5 q0 4 -1 8.5t-1 8.5zM215 705q0 -78 15.5 -152t53.5 -130t104.5 -91t166.5 -35h102v823h-147q-84 0 -141.5 -33.5t-91 -90t-48 -132t-14.5 -159.5zM805 297h102q100 0 166 35t105 91t54 130t15 152q0 84 -14 159.5t-49 132t-91.5 90t-140.5 33.5h-147v-823z" />
<glyph unicode="&#xd5;" d="M4 0l385 735l-356 666h157l195 -354q27 -47 45.5 -96.5t44.5 -94.5q20 53 41 96t49 95l189 354h155l-348 -666l395 -735h-170l-227 426q-25 45 -44 90t-40 92q-20 -47 -41.5 -92t-44.5 -92l-223 -424h-162z" />
<glyph unicode="&#x425;" d="M4 0l385 735l-356 666h157l195 -354q27 -47 45.5 -96.5t44.5 -94.5q20 53 41 96t49 95l189 354h155l-348 -666l395 -735h-170l-227 426q-25 45 -44 90t-40 92q-20 -47 -41.5 -92t-44.5 -92l-223 -424h-162z" />
<glyph unicode="&#xd6;" horiz-adv-x="1161" d="M106 0v1401h148v-1284h598v1284h147v-1286h148v-424h-139v309h-902z" />
<glyph unicode="&#x426;" horiz-adv-x="1161" d="M106 0v1401h148v-1284h598v1284h147v-1286h148v-424h-139v309h-902z" />
<glyph unicode="&#xd7;" horiz-adv-x="985" d="M66 897v504h147v-463q0 -190 199 -190h329v653h148v-1401h-148v623h-368q-139 0 -223 66.5t-84 207.5z" />
<glyph unicode="&#x427;" horiz-adv-x="985" d="M66 897v504h147v-463q0 -190 199 -190h329v653h148v-1401h-148v623h-368q-139 0 -223 66.5t-84 207.5z" />
<glyph unicode="&#xd8;" horiz-adv-x="1708" d="M104 0v1401h148v-1284h530v1284h146v-1284h530v1284h148v-1401h-1502z" />
<glyph unicode="&#x428;" horiz-adv-x="1708" d="M104 0v1401h148v-1284h530v1284h146v-1284h530v1284h148v-1401h-1502z" />
<glyph unicode="&#xd9;" horiz-adv-x="1775" d="M106 0v1401h148v-1284h530v1284h146v-1284h530v1284h148v-1286h145v-424h-137v309h-1510z" />
<glyph unicode="&#x429;" horiz-adv-x="1775" d="M106 0v1401h148v-1284h530v1284h146v-1284h530v1284h148v-1286h145v-424h-137v309h-1510z" />
<glyph unicode="&#xda;" horiz-adv-x="1118" d="M-104 1276v125h487v-588h139q88 0 177 -7t182 -48q88 -41 144 -131t56 -217q0 -131 -57 -221.5t-145 -131.5q-96 -43 -190.5 -50t-190.5 -7h-262v1276h-340zM383 127h125q84 0 160.5 7t135 35t93.5 83t35 154q0 94 -32 149t-89 85t-135 38t-168 8h-125v-559z" />
<glyph unicode="&#x42a;" horiz-adv-x="1118" d="M-104 1276v125h487v-588h139q88 0 177 -7t182 -48q88 -41 144 -131t56 -217q0 -131 -57 -221.5t-145 -131.5q-96 -43 -190.5 -50t-190.5 -7h-262v1276h-340zM383 127h125q84 0 160.5 7t135 35t93.5 83t35 154q0 94 -32 149t-89 85t-135 38t-168 8h-125v-559z" />
<glyph unicode="&#xdb;" horiz-adv-x="1359" d="M109 0v1401h147v-588h141q88 0 177.5 -7t179.5 -48t146 -131t56 -217q0 -131 -58 -221.5t-146 -131.5q-94 -43 -189.5 -50t-189.5 -7h-264zM256 127h127q84 0 159.5 7t135 35t94.5 83t35 154q0 94 -33 149t-89 85t-134 38t-168 8h-127v-559zM1110 0v1401h145v-1401h-145z " />
<glyph unicode="&#x42b;" horiz-adv-x="1359" d="M109 0v1401h147v-588h141q88 0 177.5 -7t179.5 -48t146 -131t56 -217q0 -131 -58 -221.5t-146 -131.5q-94 -43 -189.5 -50t-189.5 -7h-264zM256 127h127q84 0 159.5 7t135 35t94.5 83t35 154q0 94 -33 149t-89 85t-134 38t-168 8h-127v-559zM1110 0v1401h145v-1401h-145z " />
<glyph unicode="&#xdc;" horiz-adv-x="1007" d="M106 0v1401h148v-588h141q88 0 177.5 -7t179.5 -48q88 -41 145 -131t57 -217q0 -131 -57 -221.5t-147 -131.5q-94 -43 -188.5 -50t-190.5 -7h-265zM254 127h127q84 0 160.5 7t134 35t93.5 83t36 154q0 94 -32 149t-89 85t-135 38t-168 8h-127v-559z" />
<glyph unicode="&#x42c;" horiz-adv-x="1007" d="M106 0v1401h148v-588h141q88 0 177.5 -7t179.5 -48q88 -41 145 -131t57 -217q0 -131 -57 -221.5t-147 -131.5q-94 -43 -188.5 -50t-190.5 -7h-265zM254 127h127q84 0 160.5 7t134 35t93.5 83t36 154q0 94 -32 149t-89 85t-135 38t-168 8h-127v-559z" />
<glyph unicode="&#xdd;" horiz-adv-x="1030" d="M18 393l138 35q16 -59 39.5 -116.5t60.5 -103.5t89 -75t122 -29q115 0 183.5 57.5t104.5 144.5t47 189.5t11 190.5h-457v125l453 2q-6 82 -25.5 168t-59.5 156.5t-102.5 115.5t-154.5 45q-74 0 -124 -27.5t-85 -72.5t-56.5 -102.5t-37.5 -118.5l-133 31q18 86 53 161.5 t87 133t125 91t169 33.5q141 0 237.5 -67.5t157 -172t86 -231.5t25.5 -245q0 -127 -20.5 -258t-78 -237.5t-156 -174.5t-255.5 -68q-96 0 -169 34t-127 92.5t-90.5 134t-56.5 159.5z" />
<glyph unicode="&#x42d;" horiz-adv-x="1030" d="M18 393l138 35q16 -59 39.5 -116.5t60.5 -103.5t89 -75t122 -29q115 0 183.5 57.5t104.5 144.5t47 189.5t11 190.5h-457v125l453 2q-6 82 -25.5 168t-59.5 156.5t-102.5 115.5t-154.5 45q-74 0 -124 -27.5t-85 -72.5t-56.5 -102.5t-37.5 -118.5l-133 31q18 86 53 161.5 t87 133t125 91t169 33.5q141 0 237.5 -67.5t157 -172t86 -231.5t25.5 -245q0 -127 -20.5 -258t-78 -237.5t-156 -174.5t-255.5 -68q-96 0 -169 34t-127 92.5t-90.5 134t-56.5 159.5z" />
<glyph unicode="&#xde;" horiz-adv-x="1599" d="M104 0v1401h148v-588h295q10 109 39.5 218.5t88 197.5t148.5 143t219 55q141 0 238.5 -69.5t158 -176t87 -234.5t26.5 -245q0 -119 -25.5 -246.5t-86 -235t-157.5 -177.5t-241 -70q-143 0 -239 68t-153.5 172t-82 230t-24.5 243h-291v-686h-148zM688 702 q0 -113 16.5 -225t71.5 -213q45 -74 113.5 -123t157.5 -49q113 0 182 63.5t108 155.5t53.5 198.5t14.5 192.5q0 84 -14.5 189.5t-53.5 198t-108.5 156t-181.5 63.5q-113 0 -183.5 -63.5t-109.5 -156t-52.5 -198t-13.5 -189.5z" />
<glyph unicode="&#x42e;" horiz-adv-x="1599" d="M104 0v1401h148v-588h295q10 109 39.5 218.5t88 197.5t148.5 143t219 55q141 0 238.5 -69.5t158 -176t87 -234.5t26.5 -245q0 -119 -25.5 -246.5t-86 -235t-157.5 -177.5t-241 -70q-143 0 -239 68t-153.5 172t-82 230t-24.5 243h-291v-686h-148zM688 702 q0 -113 16.5 -225t71.5 -213q45 -74 113.5 -123t157.5 -49q113 0 182 63.5t108 155.5t53.5 198.5t14.5 192.5q0 84 -14.5 189.5t-53.5 198t-108.5 156t-181.5 63.5q-113 0 -183.5 -63.5t-109.5 -156t-52.5 -198t-13.5 -189.5z" />
<glyph unicode="&#xdf;" horiz-adv-x="985" d="M37 0l280 668q-135 33 -203.5 126t-68.5 226q0 129 65.5 218t174.5 128q74 25 166 30t178 5h254v-1401h-148v631h-143q-33 0 -66.5 4t-66.5 6l-258 -641h-164zM195 1026q0 -90 32.5 -143.5t88 -82t126 -36.5t144.5 -8h149v520h-194q-55 0 -105.5 -4t-89.5 -21 q-72 -31 -111.5 -86t-39.5 -139z" />
<glyph unicode="&#x42f;" horiz-adv-x="985" d="M37 0l280 668q-135 33 -203.5 126t-68.5 226q0 129 65.5 218t174.5 128q74 25 166 30t178 5h254v-1401h-148v631h-143q-33 0 -66.5 4t-66.5 6l-258 -641h-164zM195 1026q0 -90 32.5 -143.5t88 -82t126 -36.5t144.5 -8h149v520h-194q-55 0 -105.5 -4t-89.5 -21 q-72 -31 -111.5 -86t-39.5 -139z" />
<glyph unicode="&#xe0;" horiz-adv-x="833" d="M63 266q0 106 58.5 175t144.5 114t184.5 70.5t178.5 46.5q0 10 1 23.5t1 23.5q0 84 -53.5 136t-139.5 52q-82 0 -140 -49t-103 -113l-99 74q66 88 146 144.5t194 56.5q90 0 177 -39t126 -125q20 -45 23.5 -96t3.5 -101v-397q0 -66 4 -131t27 -131h-154q-6 33 -9 63.5 t-5 63.5q-59 -53 -127 -97t-152 -44q-125 0 -206 75.5t-81 204.5zM195 281q0 -63 39.5 -116.5t109.5 -53.5q88 0 158.5 44t126.5 107v297q-55 -16 -127 -34.5t-138.5 -49.5t-114.5 -76.5t-54 -117.5z" />
<glyph unicode="&#x430;" horiz-adv-x="833" d="M63 266q0 106 58.5 175t144.5 114t184.5 70.5t178.5 46.5q0 10 1 23.5t1 23.5q0 84 -53.5 136t-139.5 52q-82 0 -140 -49t-103 -113l-99 74q66 88 146 144.5t194 56.5q90 0 177 -39t126 -125q20 -45 23.5 -96t3.5 -101v-397q0 -66 4 -131t27 -131h-154q-6 33 -9 63.5 t-5 63.5q-59 -53 -127 -97t-152 -44q-125 0 -206 75.5t-81 204.5zM195 281q0 -63 39.5 -116.5t109.5 -53.5q88 0 158.5 44t126.5 107v297q-55 -16 -127 -34.5t-138.5 -49.5t-114.5 -76.5t-54 -117.5z" />
<glyph unicode="&#xe1;" horiz-adv-x="899" d="M55 741q0 213 36 332t95.5 178.5t135 75.5t154.5 22.5t154 20.5t132 70l65 -66q-57 -78 -126.5 -105.5t-141.5 -36.5t-140.5 -15.5t-123.5 -44t-94 -121.5t-49 -248q49 117 123.5 167t179.5 52q111 0 187.5 -46t122.5 -121t66.5 -168t20.5 -189t-20.5 -190.5t-66.5 -168 t-122 -120t-188 -46.5q-113 0 -189 46.5t-122 121t-66.5 167.5t-20.5 190v223q0 4 -1 10t-1 10zM199 502q0 -63 9 -135t36.5 -132.5t78 -100.5t132.5 -40q80 0 130 40t76.5 100.5t37 132t10.5 135.5q0 63 -9.5 135t-37 132t-77.5 100t-130 40t-130.5 -40t-78 -100 t-37.5 -132t-10 -135z" />
<glyph unicode="&#x431;" horiz-adv-x="899" d="M55 741q0 213 36 332t95.5 178.5t135 75.5t154.5 22.5t154 20.5t132 70l65 -66q-57 -78 -126.5 -105.5t-141.5 -36.5t-140.5 -15.5t-123.5 -44t-94 -121.5t-49 -248q49 117 123.5 167t179.5 52q111 0 187.5 -46t122.5 -121t66.5 -168t20.5 -189t-20.5 -190.5t-66.5 -168 t-122 -120t-188 -46.5q-113 0 -189 46.5t-122 121t-66.5 167.5t-20.5 190v223q0 4 -1 10t-1 10zM199 502q0 -63 9 -135t36.5 -132.5t78 -100.5t132.5 -40q80 0 130 40t76.5 100.5t37 132t10.5 135.5q0 63 -9.5 135t-37 132t-77.5 100t-130 40t-130.5 -40t-78 -100 t-37.5 -132t-10 -135z" />
<glyph unicode="&#xe2;" horiz-adv-x="919" d="M104 0v993h371q180 0 254 -60.5t74 -172.5q0 -82 -47 -144.5t-162 -78.5q131 -10 193.5 -77t62.5 -171q0 -137 -88 -213t-256 -76h-402zM244 113h245q117 0 164 45t49 131q0 72 -57 128t-188 56h-213v-360zM244 586h223q96 0 140 42t44 120q0 74 -47 103.5t-127 29.5 h-233v-295z" />
<glyph unicode="&#x432;" horiz-adv-x="919" d="M104 0v993h371q180 0 254 -60.5t74 -172.5q0 -82 -47 -144.5t-162 -78.5q131 -10 193.5 -77t62.5 -171q0 -137 -88 -213t-256 -76h-402zM244 113h245q117 0 164 45t49 131q0 72 -57 128t-188 56h-213v-360zM244 586h223q96 0 140 42t44 120q0 74 -47 103.5t-127 29.5 h-233v-295z" />
<glyph unicode="&#xe3;" horiz-adv-x="702" d="M106 0v993h588v-114h-446v-879h-142z" />
<glyph unicode="&#x433;" horiz-adv-x="702" d="M106 0v993h588v-114h-446v-879h-142z" />
<glyph unicode="&#xe4;" horiz-adv-x="1030" d="M0 102q18 4 51 15.5t64.5 37t54.5 70.5t23 117v651h671v-891h140v-366h-140v264h-723v-264h-141v366zM176 104h547v783h-387v-539q0 -90 -45 -152.5t-115 -91.5z" />
<glyph unicode="&#x434;" horiz-adv-x="1030" d="M0 102q18 4 51 15.5t64.5 37t54.5 70.5t23 117v651h671v-891h140v-366h-140v264h-723v-264h-141v366zM176 104h547v783h-387v-539q0 -90 -45 -152.5t-115 -91.5z" />
<glyph unicode="&#xe5;" horiz-adv-x="833" d="M45 475q0 90 20.5 186.5t65.5 176.5t119 132t182 52q88 0 156.5 -38t114 -99.5t69 -140t23.5 -160.5v-111h-602q0 -63 12 -131t41.5 -123t81 -90t131.5 -35t140 51.5t101 116.5l103 -69q-59 -92 -138 -154t-198 -66q-109 0 -187.5 41t-131 111t-78 161t-25.5 189z M195 596h452q-2 47 -14 101.5t-38 100.5t-66 76.5t-97 30.5q-61 0 -104 -28.5t-71 -73.5t-43 -100.5t-19 -106.5z" />
<glyph unicode="&#x435;" horiz-adv-x="833" d="M45 475q0 90 20.5 186.5t65.5 176.5t119 132t182 52q88 0 156.5 -38t114 -99.5t69 -140t23.5 -160.5v-111h-602q0 -63 12 -131t41.5 -123t81 -90t131.5 -35t140 51.5t101 116.5l103 -69q-59 -92 -138 -154t-198 -66q-109 0 -187.5 41t-131 111t-78 161t-25.5 189z M195 596h452q-2 47 -14 101.5t-38 100.5t-66 76.5t-97 30.5q-61 0 -104 -28.5t-71 -73.5t-43 -100.5t-19 -106.5z" />
<glyph unicode="&#xe6;" horiz-adv-x="1206" d="M16 -2q61 111 91 206t61 166.5t79 115.5t146 51q-90 10 -126 65t-58.5 118.5t-49 115t-96.5 51.5v121q10 2 20 2h17q59 0 96 -32t64 -79t46.5 -103.5t45 -103.5t60 -78.5t92.5 -31.5q6 0 13 1t13 1v409h142v-409q6 0 12 -1t14 -1q84 0 124 66.5t72 147.5t75 147.5 t131 66.5h20q10 0 21 -2v-121q-70 0 -96.5 -51.5t-49 -115t-58.5 -118.5t-126 -65q98 -6 146.5 -50.5t78 -116t59 -166.5t91.5 -206l-150 2q-51 98 -79.5 183t-60.5 149.5t-79 101.5t-135 37h-10v-471h-142v471h-8q-90 0 -137 -37t-78 -101.5t-59.5 -149.5t-79.5 -183z" />
<glyph unicode="&#x436;" horiz-adv-x="1206" d="M16 -2q61 111 91 206t61 166.5t79 115.5t146 51q-90 10 -126 65t-58.5 118.5t-49 115t-96.5 51.5v121q10 2 20 2h17q59 0 96 -32t64 -79t46.5 -103.5t45 -103.5t60 -78.5t92.5 -31.5q6 0 13 1t13 1v409h142v-409q6 0 12 -1t14 -1q84 0 124 66.5t72 147.5t75 147.5 t131 66.5h20q10 0 21 -2v-121q-70 0 -96.5 -51.5t-49 -115t-58.5 -118.5t-126 -65q98 -6 146.5 -50.5t78 -116t59 -166.5t91.5 -206l-150 2q-51 98 -79.5 183t-60.5 149.5t-79 101.5t-135 37h-10v-471h-142v471h-8q-90 0 -137 -37t-78 -101.5t-59.5 -149.5t-79.5 -183z" />
<glyph unicode="&#xe7;" horiz-adv-x="765" d="M8 154l96 79q53 -78 118 -113.5t138 -35.5q37 0 75 10t70 33t53.5 57.5t21.5 83.5q0 88 -74 145.5t-176 57.5h-99v109h105q84 0 143.5 47t59.5 125v18q-10 78 -59.5 116t-112.5 38q-66 0 -119 -30t-117 -97l-86 73q51 63 129 110.5t197 47.5q158 -2 231.5 -76.5 t75.5 -191.5v-6q0 -86 -54.5 -149.5t-146.5 -78.5q133 -27 186.5 -97.5t53.5 -170.5q0 -74 -32 -128t-83 -88t-111.5 -50.5t-119.5 -16.5h-13q-109 0 -192.5 41.5t-157.5 137.5z" />
<glyph unicode="&#x437;" horiz-adv-x="765" d="M8 154l96 79q53 -78 118 -113.5t138 -35.5q37 0 75 10t70 33t53.5 57.5t21.5 83.5q0 88 -74 145.5t-176 57.5h-99v109h105q84 0 143.5 47t59.5 125v18q-10 78 -59.5 116t-112.5 38q-66 0 -119 -30t-117 -97l-86 73q51 63 129 110.5t197 47.5q158 -2 231.5 -76.5 t75.5 -191.5v-6q0 -86 -54.5 -149.5t-146.5 -78.5q133 -27 186.5 -97.5t53.5 -170.5q0 -74 -32 -128t-83 -88t-111.5 -50.5t-119.5 -16.5h-13q-109 0 -192.5 41.5t-157.5 137.5z" />
<glyph unicode="&#xe8;" horiz-adv-x="944" d="M106 0v993h142v-774l436 774h158v-993h-140v782l-456 -782h-140z" />
<glyph unicode="&#x438;" horiz-adv-x="944" d="M106 0v993h142v-774l436 774h158v-993h-140v782l-456 -782h-140z" />
<glyph unicode="&#xe9;" horiz-adv-x="966" d="M131 0v993h139v-774l439 774h157v-993h-141v782l-457 -782h-137zM182 1364l66 61q14 -23 40.5 -48t59.5 -46.5t69 -36t70 -14.5l5 2q53 2 123.5 44t109.5 97l63 -59q-18 -31 -50.5 -61.5t-72.5 -55t-85 -41t-86 -16.5l-7 -4q-51 0 -101 17.5t-92 43t-72 57t-40 60.5z" />
<glyph unicode="&#x439;" horiz-adv-x="966" d="M131 0v993h139v-774l439 774h157v-993h-141v782l-457 -782h-137zM182 1364l66 61q14 -23 40.5 -48t59.5 -46.5t69 -36t70 -14.5l5 2q53 2 123.5 44t109.5 97l63 -59q-18 -31 -50.5 -61.5t-72.5 -55t-85 -41t-86 -16.5l-7 -4q-51 0 -101 17.5t-92 43t-72 57t-40 60.5z" />
<glyph unicode="&#xea;" horiz-adv-x="811" d="M106 0v993h142v-409q6 0 13 -1t13 -1q61 0 100.5 31.5t66 78.5t48 103.5t50 103.5t68.5 79t106 32h20q12 0 21 -2v-121q-49 0 -78 -24.5t-46.5 -61.5t-31.5 -80t-36.5 -82t-60.5 -67.5t-102 -34.5q106 -6 157.5 -50.5t85.5 -116t65.5 -166.5t97.5 -206l-164 2 q-55 98 -86 183t-64.5 149.5t-85 101.5t-147.5 37h-10v-471h-142z" />
<glyph unicode="&#x43a;" horiz-adv-x="811" d="M106 0v993h142v-409q6 0 13 -1t13 -1q61 0 100.5 31.5t66 78.5t48 103.5t50 103.5t68.5 79t106 32h20q12 0 21 -2v-121q-49 0 -78 -24.5t-46.5 -61.5t-31.5 -80t-36.5 -82t-60.5 -67.5t-102 -34.5q106 -6 157.5 -50.5t85.5 -116t65.5 -166.5t97.5 -206l-164 2 q-55 98 -86 183t-64.5 149.5t-85 101.5t-147.5 37h-10v-471h-142z" />
<glyph unicode="&#xeb;" horiz-adv-x="899" d="M-23 0v102q8 0 17.5 -1t15.5 -1q66 0 89.5 32t27.5 95v766h668v-993h-142v893h-387v-655q-4 -127 -61.5 -182.5t-122.5 -55.5h-105z" />
<glyph unicode="&#x43b;" horiz-adv-x="899" d="M-23 0v102q8 0 17.5 -1t15.5 -1q66 0 89.5 32t27.5 95v766h668v-993h-142v893h-387v-655q-4 -127 -61.5 -182.5t-122.5 -55.5h-105z" />
<glyph unicode="&#xec;" horiz-adv-x="1161" d="M106 0v993h248l199 -676l31 -143l28 143l201 676h248v-993h-143v883l-27 -107l-238 -776h-139l-240 776l-24 105v-881h-144z" />
<glyph unicode="&#x43c;" horiz-adv-x="1161" d="M106 0v993h248l199 -676l31 -143l28 143l201 676h248v-993h-143v883l-27 -107l-238 -776h-139l-240 776l-24 105v-881h-144z" />
<glyph unicode="&#xed;" horiz-adv-x="944" d="M104 0v993h142v-407h454v407h140v-993h-140v469h-454v-469h-142z" />
<glyph unicode="&#x43d;" horiz-adv-x="944" d="M104 0v993h142v-407h454v407h140v-993h-140v469h-454v-469h-142z" />
<glyph unicode="&#xee;" horiz-adv-x="876" d="M45 498q0 96 20.5 189t66.5 168t122 121t186 46q113 0 189 -46t123 -121t67.5 -168t20.5 -189t-20.5 -190.5t-66.5 -168t-123 -120t-190 -46.5q-111 0 -186.5 46.5t-121.5 121t-66.5 168t-20.5 189.5zM186 502q0 -63 9.5 -135t37 -132.5t77.5 -100.5t130 -40t130.5 40 t78 100.5t36.5 132t9 135.5q0 63 -9 135t-36.5 132t-77 100t-131.5 40q-80 0 -129 -40t-76.5 -100t-38 -132t-10.5 -135z" />
<glyph unicode="&#x43e;" horiz-adv-x="876" d="M45 498q0 96 20.5 189t66.5 168t122 121t186 46q113 0 189 -46t123 -121t67.5 -168t20.5 -189t-20.5 -190.5t-66.5 -168t-123 -120t-190 -46.5q-111 0 -186.5 46.5t-121.5 121t-66.5 168t-20.5 189.5zM186 502q0 -63 9.5 -135t37 -132.5t77.5 -100.5t130 -40t130.5 40 t78 100.5t36.5 132t9 135.5q0 63 -9 135t-36.5 132t-77 100t-131.5 40q-80 0 -129 -40t-76.5 -100t-38 -132t-10.5 -135z" />
<glyph unicode="&#xef;" horiz-adv-x="944" d="M106 0v993h715v-993h-141v877h-432v-877h-142z" />
<glyph unicode="&#x43f;" horiz-adv-x="944" d="M106 0v993h715v-993h-141v877h-432v-877h-142z" />
<glyph unicode="&#xf0;" horiz-adv-x="919" d="M104 -309v1302h142v-106q49 55 108.5 94t137.5 39q104 0 175.5 -48t114.5 -125t61.5 -169t18.5 -182q0 -86 -20.5 -176.5t-65.5 -164t-115.5 -121.5t-171.5 -48q-74 0 -132 32.5t-111 79.5v-407h-142zM246 260q41 -59 94 -105t129 -46t123 42t74.5 104t38 133t10.5 130 q0 55 -8.5 124t-33 128t-69.5 100t-119 41q-84 0 -141 -57t-98 -119v-475z" />
<glyph unicode="&#x440;" horiz-adv-x="919" d="M104 -309v1302h142v-106q49 55 108.5 94t137.5 39q104 0 175.5 -48t114.5 -125t61.5 -169t18.5 -182q0 -86 -20.5 -176.5t-65.5 -164t-115.5 -121.5t-171.5 -48q-74 0 -132 32.5t-111 79.5v-407h-142zM246 260q41 -59 94 -105t129 -46t123 42t74.5 104t38 133t10.5 130 q0 55 -8.5 124t-33 128t-69.5 100t-119 41q-84 0 -141 -57t-98 -119v-475z" />
<glyph unicode="&#xf1;" horiz-adv-x="811" d="M43 477q0 111 21.5 210t68.5 174t120 118t175 43q131 0 212 -68.5t120 -183.5l-117 -51q-31 76 -75 132t-138 56q-78 0 -125 -46t-71.5 -111.5t-32.5 -140t-8 -132.5q0 -59 12 -126.5t41.5 -124t79 -94.5t120.5 -38q90 0 143.5 62.5t86.5 134.5l115 -51 q-51 -104 -136.5 -185.5t-210.5 -81.5h-4q-102 0 -177 41t-124 111t-72.5 161t-23.5 191z" />
<glyph unicode="&#x441;" horiz-adv-x="811" d="M43 477q0 111 21.5 210t68.5 174t120 118t175 43q131 0 212 -68.5t120 -183.5l-117 -51q-31 76 -75 132t-138 56q-78 0 -125 -46t-71.5 -111.5t-32.5 -140t-8 -132.5q0 -59 12 -126.5t41.5 -124t79 -94.5t120.5 -38q90 0 143.5 62.5t86.5 134.5l115 -51 q-51 -104 -136.5 -185.5t-210.5 -81.5h-4q-102 0 -177 41t-124 111t-72.5 161t-23.5 191z" />
<glyph unicode="&#xf2;" horiz-adv-x="722" d="M0 879v114h705v-114h-283v-879h-141v879h-281z" />
<glyph unicode="&#x442;" horiz-adv-x="722" d="M0 879v114h705v-114h-283v-879h-141v879h-281z" />
<glyph unicode="&#xf3;" horiz-adv-x="790" d="M-6 995h143l269 -776l247 776h133l-333 -1054q-18 -57 -49 -108.5t-72 -90.5t-94.5 -61.5t-118.5 -22.5q-29 0 -55.5 5t-55.5 15l21 121q49 -16 86 -16q49 0 86 21.5t62.5 56.5t43 77t29.5 80z" />
<glyph unicode="&#x443;" horiz-adv-x="790" d="M-6 995h143l269 -776l247 776h133l-333 -1054q-18 -57 -49 -108.5t-72 -90.5t-94.5 -61.5t-118.5 -22.5q-29 0 -55.5 5t-55.5 15l21 121q49 -16 86 -16q49 0 86 21.5t62.5 56.5t43 77t29.5 80z" />
<glyph unicode="&#xf4;" horiz-adv-x="1400" d="M39 494q0 156 37 257t92 160.5t120.5 84t121.5 24.5q82 0 130 -18.5t91 -55.5v453h133v-453q43 37 90 55.5t131 18.5q55 0 119.5 -24.5t120 -84t92.5 -161t37 -256.5v-5q0 -164 -40 -264t-98.5 -155.5t-123 -74t-115.5 -18.5h-14q-57 0 -112.5 24t-86.5 56v-366h-133v366 q-31 -33 -87.5 -56.5t-113.5 -23.5h-12q-51 0 -115.5 18.5t-122 74t-97.5 156t-40 263.5zM184 492q0 -133 27 -213t66.5 -123t84 -57.5t78.5 -14.5q61 0 113.5 23.5t75.5 64.5v672q-45 41 -98.5 57.5t-90.5 16.5h-18q-37 0 -78 -15.5t-77 -61.5t-59.5 -130t-23.5 -219z M766 172q20 -41 73.5 -64.5t114.5 -23.5q35 0 79 14.5t84 57.5t66.5 122.5t26.5 213.5q0 135 -23.5 219t-59 130t-76.5 61.5t-78 15.5h-21q-37 0 -89 -16.5t-97 -57.5v-672z" />
<glyph unicode="&#x444;" horiz-adv-x="1400" d="M39 494q0 156 37 257t92 160.5t120.5 84t121.5 24.5q82 0 130 -18.5t91 -55.5v453h133v-453q43 37 90 55.5t131 18.5q55 0 119.5 -24.5t120 -84t92.5 -161t37 -256.5v-5q0 -164 -40 -264t-98.5 -155.5t-123 -74t-115.5 -18.5h-14q-57 0 -112.5 24t-86.5 56v-366h-133v366 q-31 -33 -87.5 -56.5t-113.5 -23.5h-12q-51 0 -115.5 18.5t-122 74t-97.5 156t-40 263.5zM184 492q0 -133 27 -213t66.5 -123t84 -57.5t78.5 -14.5q61 0 113.5 23.5t75.5 64.5v672q-45 41 -98.5 57.5t-90.5 16.5h-18q-37 0 -78 -15.5t-77 -61.5t-59.5 -130t-23.5 -219z M766 172q20 -41 73.5 -64.5t114.5 -23.5q35 0 79 14.5t84 57.5t66.5 122.5t26.5 213.5q0 135 -23.5 219t-59 130t-76.5 61.5t-78 15.5h-21q-37 0 -89 -16.5t-97 -57.5v-672z" />
<glyph unicode="&#xf5;" horiz-adv-x="811" d="M8 0l293 522l-293 471h168l207 -348l195 348h147l-258 -471l326 -522h-172l-238 397l-221 -397h-154z" />
<glyph unicode="&#x445;" horiz-adv-x="811" d="M8 0l293 522l-293 471h168l207 -348l195 348h147l-258 -471l326 -522h-172l-238 397l-221 -397h-154z" />
<glyph unicode="&#xf6;" horiz-adv-x="985" d="M104 0v993h142v-876h432v876h141v-876h142v-381h-142v264h-715z" />
<glyph unicode="&#x446;" horiz-adv-x="985" d="M104 0v993h142v-876h432v876h141v-876h142v-381h-142v264h-715z" />
<glyph unicode="&#xf7;" horiz-adv-x="854" d="M66 743v250h141v-268q0 -35 3 -77t16.5 -76.5t39 -58.5t70.5 -24q80 0 146.5 41t105.5 97l2 366h141v-993h-141l-2 494q-53 -51 -113.5 -85t-155.5 -34q-152 0 -202.5 93t-50.5 275z" />
<glyph unicode="&#x447;" horiz-adv-x="854" d="M66 743v250h141v-268q0 -35 3 -77t16.5 -76.5t39 -58.5t70.5 -24q80 0 146.5 41t105.5 97l2 366h141v-993h-141l-2 494q-53 -51 -113.5 -85t-155.5 -34q-152 0 -202.5 93t-50.5 275z" />
<glyph unicode="&#xf8;" horiz-adv-x="1468" d="M109 0v993h141v-876h418v876h141v-876h418v876h141v-993h-1259z" />
<glyph unicode="&#x448;" horiz-adv-x="1468" d="M109 0v993h141v-876h418v876h141v-876h418v876h141v-993h-1259z" />
<glyph unicode="&#xf9;" horiz-adv-x="1533" d="M106 0v993h142v-876h418v876h141v-876h418v876h141v-876h139v-381h-139v264h-1260z" />
<glyph unicode="&#x449;" horiz-adv-x="1533" d="M106 0v993h142v-876h418v876h141v-876h418v876h141v-876h139v-381h-139v264h-1260z" />
<glyph unicode="&#xfa;" horiz-adv-x="854" d="M-74 881v112h371v-407h190q152 0 247 -73t97 -220q0 -147 -95 -220t-242 -73h-338v881h-230zM297 117h168q94 0 154.5 40t60.5 136t-60.5 136t-154.5 40h-168v-352z" />
<glyph unicode="&#x44a;" horiz-adv-x="854" d="M-74 881v112h371v-407h190q152 0 247 -73t97 -220q0 -147 -95 -220t-242 -73h-338v881h-230zM297 117h168q94 0 154.5 40t60.5 136t-60.5 136t-154.5 40h-168v-352z" />
<glyph unicode="&#xfb;" horiz-adv-x="1161" d="M104 0v993h142v-407h190q152 0 248 -73t98 -220q0 -147 -95 -220t-245 -73h-338zM246 117h168q94 0 155.5 40t61.5 136t-61.5 136t-155.5 40h-168v-352zM926 0v993h141v-993h-141z" />
<glyph unicode="&#x44b;" horiz-adv-x="1161" d="M104 0v993h142v-407h190q152 0 248 -73t98 -220q0 -147 -95 -220t-245 -73h-338zM246 117h168q94 0 155.5 40t61.5 136t-61.5 136t-155.5 40h-168v-352zM926 0v993h141v-993h-141z" />
<glyph unicode="&#xfc;" horiz-adv-x="833" d="M106 0v993h142v-407h190q152 0 248 -73t98 -220q0 -147 -95 -220t-245 -73h-338zM248 117h168q96 0 156.5 40t60.5 136t-60.5 136t-156.5 40h-168v-352z" />
<glyph unicode="&#x44c;" horiz-adv-x="833" d="M106 0v993h142v-407h190q152 0 248 -73t98 -220q0 -147 -95 -220t-245 -73h-338zM248 117h168q96 0 156.5 40t60.5 136t-60.5 136t-156.5 40h-168v-352z" />
<glyph unicode="&#xfd;" horiz-adv-x="811" d="M16 240l115 51q33 -72 86 -134.5t141 -62.5q74 0 122 37t78 93.5t42 122t12 122.5h-319v117h313q-6 55 -19.5 112.5t-39 103.5t-67.5 75.5t-103 29.5q-94 0 -139 -56t-74 -132l-117 51q45 117 122 184.5t210 67.5q106 0 179 -52t119 -132t66.5 -176.5t20.5 -184.5 q0 -92 -24.5 -182t-75 -162t-126 -116t-178.5 -44q-127 0 -210 81.5t-134 185.5z" />
<glyph unicode="&#x44d;" horiz-adv-x="811" d="M16 240l115 51q33 -72 86 -134.5t141 -62.5q74 0 122 37t78 93.5t42 122t12 122.5h-319v117h313q-6 55 -19.5 112.5t-39 103.5t-67.5 75.5t-103 29.5q-94 0 -139 -56t-74 -132l-117 51q45 117 122 184.5t210 67.5q106 0 179 -52t119 -132t66.5 -176.5t20.5 -184.5 q0 -92 -24.5 -182t-75 -162t-126 -116t-178.5 -44q-127 0 -210 81.5t-134 185.5z" />
<glyph unicode="&#xfe;" horiz-adv-x="1314" d="M104 0v993h142v-407h203q10 86 35.5 164.5t72.5 139t117.5 96.5t169.5 36q113 0 188.5 -46t122.5 -121t67.5 -168t20.5 -189t-20.5 -190.5t-66.5 -168t-123 -120t-189 -46.5q-106 0 -181 43t-122 113t-68.5 159t-26.5 181h-200v-469h-142zM590 502q0 -63 10 -135 t37 -132.5t77 -100.5t130 -40t130 40t77.5 100.5t37 132t9.5 135.5q0 63 -9.5 135t-37 132t-76.5 100t-131 40q-80 0 -130 -40t-78 -100t-37 -132t-9 -135z" />
<glyph unicode="&#x44e;" horiz-adv-x="1314" d="M104 0v993h142v-407h203q10 86 35.5 164.5t72.5 139t117.5 96.5t169.5 36q113 0 188.5 -46t122.5 -121t67.5 -168t20.5 -189t-20.5 -190.5t-66.5 -168t-123 -120t-189 -46.5q-106 0 -181 43t-122 113t-68.5 159t-26.5 181h-200v-469h-142zM590 502q0 -63 10 -135 t37 -132.5t77 -100.5t130 -40t130 40t77.5 100.5t37 132t9.5 135.5q0 63 -9.5 135t-37 132t-76.5 100t-131 40q-80 0 -130 -40t-78 -100t-37 -132t-9 -135z" />
<glyph unicode="&#xff;" horiz-adv-x="856" d="M37 0l51 121q27 59 50.5 124.5t54 121t72.5 96.5t108 51q-133 0 -202 60.5t-69 166.5q0 125 71 188.5t230 63.5h351v-993h-142v473h-84q-68 0 -111.5 -37t-76.5 -94t-58.5 -128t-56.5 -136l-37 -78h-151zM240 741q0 -80 47 -117.5t149 -37.5h176v295h-204 q-88 -2 -128 -40.5t-40 -99.5z" />
<glyph unicode="&#x44f;" horiz-adv-x="856" d="M37 0l51 121q27 59 50.5 124.5t54 121t72.5 96.5t108 51q-133 0 -202 60.5t-69 166.5q0 125 71 188.5t230 63.5h351v-993h-142v473h-84q-68 0 -111.5 -37t-76.5 -94t-58.5 -128t-56.5 -136l-37 -78h-151zM240 741q0 -80 47 -117.5t149 -37.5h176v295h-204 q-88 -2 -128 -40.5t-40 -99.5z" />
<glyph unicode="&#x152;" horiz-adv-x="2105" d="M1265 0v1401h760v-125h-612v-477h436v-127h-436v-545h655v-127h-803zM70 702q0 117 23.5 245t80.5 234.5t153.5 176t241.5 69.5q141 0 239.5 -69.5t158 -176t86 -234.5t26.5 -245q0 -119 -25.5 -246.5t-85 -235t-157.5 -177.5t-242 -70q-145 0 -241.5 70t-153.5 177.5 t-80.5 236t-23.5 245.5zM217 702q0 -113 15.5 -225t72.5 -213q43 -74 111.5 -123t156.5 -49q113 0 183.5 63.5t109.5 155.5t52.5 198.5t13.5 192.5q0 84 -13.5 189.5t-52.5 198t-109.5 156t-183.5 63.5t-182 -63.5t-108 -156t-52.5 -198t-13.5 -189.5z" />
<glyph unicode="&#x153;" horiz-adv-x="1753" d="M958 475q0 90 20.5 186.5t65.5 176.5t120 132t181 52q90 0 158 -38t113 -99.5t68.5 -140t23.5 -160.5v-111h-600q0 -63 11 -131t41 -123t81 -90t131 -35t141.5 51.5t100.5 116.5l102 -69q-59 -92 -137 -154t-199 -66q-109 0 -187.5 41t-130.5 111t-78 161t-26 189z M1110 596h451q-2 47 -14.5 101.5t-38 100.5t-65.5 76.5t-98 30.5q-61 0 -104 -28.5t-70.5 -73.5t-42 -100.5t-18.5 -106.5zM45 498q0 96 20.5 189t66.5 168t122 121t186 46q113 0 189 -46t123 -121t67.5 -168t20.5 -189t-20.5 -190.5t-66.5 -168t-123 -120t-190 -46.5 q-111 0 -186.5 46.5t-121.5 121t-66.5 168t-20.5 189.5zM186 502q0 -63 9.5 -135t37 -132.5t77.5 -100.5t130 -40t130.5 40t78 100.5t36.5 132t9 135.5q0 63 -9 135t-36.5 132t-77 100t-131.5 40q-80 0 -129 -40t-76.5 -100t-38 -132t-10.5 -135z" />
<glyph unicode="&#x178;" horiz-adv-x="856" d="M37 0l51 121q27 59 50.5 124.5t54 121t72.5 96.5t108 51q-133 0 -202 60.5t-69 166.5q0 125 71 188.5t230 63.5h351v-993h-142v473h-84q-68 0 -111.5 -37t-76.5 -94t-58.5 -128t-56.5 -136l-37 -78h-151zM240 741q0 -80 47 -117.5t149 -37.5h176v295h-204 q-88 -2 -128 -40.5t-40 -99.5z" />
<glyph unicode="&#x45f;" horiz-adv-x="856" d="M37 0l51 121q27 59 50.5 124.5t54 121t72.5 96.5t108 51q-133 0 -202 60.5t-69 166.5q0 125 71 188.5t230 63.5h351v-993h-142v473h-84q-68 0 -111.5 -37t-76.5 -94t-58.5 -128t-56.5 -136l-37 -78h-151zM240 741q0 -80 47 -117.5t149 -37.5h176v295h-204 q-88 -2 -128 -40.5t-40 -99.5z" />
<glyph unicode="&#x2c6;" horiz-adv-x="616" d="M72 1108l194 258h105l194 -258h-141l-105 141l-110 -141h-137z" />
<glyph unicode="&#x2c9;" horiz-adv-x="350" d="M-51 1509v154h141v-154h-141zM102 0v1401h148v-1401h-148zM258 1509v154h139v-154h-139z" />
<glyph unicode="&#x2dc;" horiz-adv-x="679" d="M45 1192q33 47 78 91t110 44q31 0 58.5 -10t55.5 -23.5t55.5 -23.5t58.5 -10q35 0 57.5 25.5t40.5 49.5l88 -43q-31 -49 -74 -97t-106 -48q-33 0 -61.5 10t-57.5 22.5t-57.5 23.5t-59.5 14q-39 0 -64.5 -25t-45.5 -55z" />
<glyph unicode="&#x2000;" horiz-adv-x="892" />
<glyph unicode="&#x2001;" horiz-adv-x="1785" />
<glyph unicode="&#x2002;" horiz-adv-x="892" />
<glyph unicode="&#x2003;" horiz-adv-x="1785" />
<glyph unicode="&#x2004;" horiz-adv-x="593" />
<glyph unicode="&#x2005;" horiz-adv-x="446" />
<glyph unicode="&#x2006;" horiz-adv-x="296" />
<glyph unicode="&#x2007;" horiz-adv-x="296" />
<glyph unicode="&#x2008;" horiz-adv-x="223" />
<glyph unicode="&#x2009;" horiz-adv-x="356" />
<glyph unicode="&#x200a;" horiz-adv-x="98" />
<glyph unicode="&#x2010;" horiz-adv-x="569" d="M98 453v133h369v-133h-369z" />
<glyph unicode="&#x2011;" horiz-adv-x="569" d="M98 453v133h369v-133h-369z" />
<glyph unicode="&#x2012;" horiz-adv-x="569" d="M98 453v133h369v-133h-369z" />
<glyph unicode="&#x2013;" horiz-adv-x="1095" d="M74 453v133h942v-133h-942z" />
<glyph unicode="&#x2014;" horiz-adv-x="1273" d="M90 453v133h1106v-133h-1106z" />
<glyph unicode="&#x2018;" horiz-adv-x="526" d="M178 913v197l123 291h90l-90 -277h59v-211h-182z" />
<glyph unicode="&#x2019;" horiz-adv-x="503" d="M154 913l90 279h-62v209h183v-195l-121 -293h-90z" />
<glyph unicode="&#x201c;" horiz-adv-x="833" d="M182 913v197l123 291h90l-90 -277h60v-211h-183zM467 913v197l119 291h90l-90 -277h61v-211h-180z" />
<glyph unicode="&#x201d;" horiz-adv-x="811" d="M154 913l90 279h-62v209h183v-195l-121 -293h-90zM436 913l90 279h-59v209h180v-195l-121 -293h-90z" />
<glyph unicode="&#x2022;" horiz-adv-x="518" d="M27 600q0 84 59 143.5t143 59.5t144.5 -59.5t60.5 -143.5t-60.5 -142.5t-144.5 -58.5t-143 58.5t-59 142.5z" />
<glyph unicode="&#x2026;" horiz-adv-x="1050" d="M786 0v211h182v-211h-182zM436 0v211h182v-211h-182zM86 0v211h182v-211h-182z" />
<glyph unicode="&#x202f;" horiz-adv-x="356" />
<glyph unicode="&#x2039;" horiz-adv-x="1052" d="M66 639v129l909 428v-152l-748 -339l748 -343v-149z" />
<glyph unicode="&#x203a;" horiz-adv-x="1052" d="M72 213v149l747 343l-747 339v152l909 -428v-129z" />
<glyph unicode="&#x205f;" horiz-adv-x="446" />
<glyph unicode="&#x2122;" horiz-adv-x="2234" d="M1005 0v1401h244l240 -871q20 -76 37.5 -153.5t31.5 -155.5q14 76 33 149.5t33 149.5l238 881h249v-1401h-147v1268l-344 -1268h-117l-350 1268v-1268h-148zM2 1276v125h901v-125h-379v-1276h-145v1276h-377z" />
<glyph unicode="&#xe000;" horiz-adv-x="995" d="M0 995h995v-995h-995v995z" />
<glyph unicode="&#xfb01;" horiz-adv-x="833" d="M592 0v993h141v-993h-141zM592 1245v156h141v-156h-141zM-2 877v116h152v127q0 137 56 216t206 79q18 0 37.5 -2t37.5 -2v-127q-47 10 -88 10q-78 -8 -93 -54t-15 -110v-137h182v-116h-182v-877h-141v877h-152z" />
<glyph unicode="&#xfb02;" horiz-adv-x="833" d="M589 0v1401h142v-1401h-142zM-2 877v116h152v127q0 137 56 216t206 79q18 0 37.5 -2t37.5 -2v-127q-47 10 -88 10q-78 -8 -93 -54t-15 -110v-137h182v-116h-182v-877h-141v877h-152z" />
<glyph unicode="&#xfb03;" horiz-adv-x="1316" d="M1076 0v993h141v-993h-141zM1076 1245v156h141v-156h-141zM481 877v116h152v127q0 137 56 216t206 79q18 0 37.5 -2t37.5 -2v-127q-47 10 -88 10q-78 -8 -93 -54t-15 -110v-137h182v-116h-182v-877h-141v877h-152zM-2 877v116h152v127q0 137 56 216t206 79q18 0 37.5 -2 t37.5 -2v-127q-47 10 -88 10q-78 -8 -93 -54t-15 -110v-137h182v-116h-182v-877h-141v877h-152z" />
<glyph unicode="&#xfb04;" horiz-adv-x="1316" d="M1073 0v1401h142v-1401h-142zM481 877v116h152v127q0 137 56 216t206 79q18 0 37.5 -2t37.5 -2v-127q-47 10 -88 10q-78 -8 -93 -54t-15 -110v-137h182v-116h-182v-877h-141v877h-152zM-2 877v116h152v127q0 137 56 216t206 79q18 0 37.5 -2t37.5 -2v-127q-47 10 -88 10 q-78 -8 -93 -54t-15 -110v-137h182v-116h-182v-877h-141v877h-152z" />
</font>
</defs>
</svg>
