<svg xmlns="http://www.w3.org/2000/svg" viewBox="0 0 58 58" enable-background="new 0 0 58 58"><path d="M56.414 7.5l-3.707 3.707c-.195.195-.451.293-.707.293s-.512-.098-.707-.293c-.391-.391-.391-1.023 0-1.414l2.293-2.293h-4.172l-3.707 3.707c-.195.195-.451.293-.707.293s-.512-.098-.707-.293c-.391-.391-.391-1.023 0-1.414l2.293-2.293h-4.172l-3.707 3.707c-.195.195-.451.293-.707.293s-.512-.098-.707-.293c-.391-.391-.391-1.023 0-1.414l2.293-2.293h-4.172l-3.707 3.707c-.195.195-.451.293-.707.293s-.512-.098-.707-.293c-.391-.391-.391-1.023 0-1.414l2.293-2.293h-4.172l-3.707 3.707c-.195.195-.451.293-.707.293s-.512-.098-.707-.293c-.391-.391-.391-1.023 0-1.414l2.293-2.293h-4.172l-3.707 3.707c-.195.195-.451.293-.707.293s-.512-.098-.707-.293c-.391-.391-.391-1.023 0-1.414l2.293-2.293h-4.172l-3.707 3.707c-.195.195-.451.293-.707.293s-.512-.098-.707-.293c-.391-.391-.391-1.023 0-1.414l2.293-2.293h-4.172l-3.707 3.707c-.195.195-.451.293-.707.293s-.512-.098-.707-.293c-.391-.391-.391-1.023 0-1.414l2.293-2.293h-4.586v43h1.586l3.707-3.707c.391-.391 1.023-.391 1.414 0s.391 1.023 0 1.414l-2.293 2.293h4.172l3.707-3.707c.391-.391 1.023-.391 1.414 0s.391 1.023 0 1.414l-2.293 2.293h4.172l3.707-3.707c.391-.391 1.023-.391 1.414 0s.391 1.023 0 1.414l-2.293 2.293h4.172l3.707-3.707c.391-.391 1.023-.391 1.414 0s.391 1.023 0 1.414l-2.293 2.293h4.172l3.707-3.707c.391-.391 1.023-.391 1.414 0s.391 1.023 0 1.414l-2.293 2.293h4.172l3.707-3.707c.391-.391 1.023-.391 1.414 0s.391 1.023 0 1.414l-2.293 2.293h4.172l3.707-3.707c.391-.391 1.023-.391 1.414 0s.391 1.023 0 1.414l-2.293 2.293h4.172l3.707-3.707c.391-.391 1.023-.391 1.414 0s.391 1.023 0 1.414l-2.293 2.293h4.586v-43h-1.586z" fill="#E5E5DA"/><path d="M6.707 46.793c-.391-.391-1.023-.391-1.414 0l-3.707 3.707h2.828l2.293-2.293c.391-.391.391-1.023 0-1.414z" fill="#7FB1C8"/><path d="M13.707 46.793c-.391-.391-1.023-.391-1.414 0l-3.707 3.707h2.828l2.293-2.293c.391-.391.391-1.023 0-1.414z" fill="#E59677"/><path d="M20.707 46.793c-.391-.391-1.023-.391-1.414 0l-3.707 3.707h2.828l2.293-2.293c.391-.391.391-1.023 0-1.414z" fill="#7FB1C8"/><path d="M27.707 46.793c-.391-.391-1.023-.391-1.414 0l-3.707 3.707h2.828l2.293-2.293c.391-.391.391-1.023 0-1.414z" fill="#E59677"/><path d="M34.707 46.793c-.391-.391-1.023-.391-1.414 0l-3.707 3.707h2.828l2.293-2.293c.391-.391.391-1.023 0-1.414z" fill="#7FB1C8"/><path d="M41.707 46.793c-.391-.391-1.023-.391-1.414 0l-3.707 3.707h2.828l2.293-2.293c.391-.391.391-1.023 0-1.414z" fill="#E59677"/><path d="M48.707 46.793c-.391-.391-1.023-.391-1.414 0l-3.707 3.707h2.828l2.293-2.293c.391-.391.391-1.023 0-1.414z" fill="#7FB1C8"/><path d="M55.707 46.793c-.391-.391-1.023-.391-1.414 0l-3.707 3.707h2.828l2.293-2.293c.391-.391.391-1.023 0-1.414z" fill="#E59677"/><path d="M2.293 11.207c.195.195.451.293.707.293s.512-.098.707-.293l3.707-3.707h-2.828l-2.293 2.293c-.391.391-.391 1.023 0 1.414z" fill="#7FB1C8"/><path d="M9.293 11.207c.195.195.451.293.707.293s.512-.098.707-.293l3.707-3.707h-2.828l-2.293 2.293c-.391.391-.391 1.023 0 1.414z" fill="#E59677"/><path d="M16.293 11.207c.195.195.451.293.707.293s.512-.098.707-.293l3.707-3.707h-2.828l-2.293 2.293c-.391.391-.391 1.023 0 1.414z" fill="#7FB1C8"/><path d="M23.293 11.207c.195.195.451.293.707.293s.512-.098.707-.293l3.707-3.707h-2.828l-2.293 2.293c-.391.391-.391 1.023 0 1.414z" fill="#E59677"/><path d="M30.293 11.207c.195.195.451.293.707.293s.512-.098.707-.293l3.707-3.707h-2.828l-2.293 2.293c-.391.391-.391 1.023 0 1.414z" fill="#7FB1C8"/><path d="M37.293 11.207c.195.195.451.293.707.293s.512-.098.707-.293l3.707-3.707h-2.828l-2.293 2.293c-.391.391-.391 1.023 0 1.414z" fill="#E59677"/><path d="M44.293 11.207c.195.195.451.293.707.293s.512-.098.707-.293l3.707-3.707h-2.828l-2.293 2.293c-.391.391-.391 1.023 0 1.414z" fill="#7FB1C8"/><path d="M51.293 11.207c.195.195.451.293.707.293s.512-.098.707-.293l3.707-3.707h-2.828l-2.293 2.293c-.391.391-.391 1.023 0 1.414z" fill="#E59677"/><path fill="#D75A4A" d="M43 19.5h8v8h-8z"/><path d="M27 25.5h-20c-.552 0-1-.447-1-1s.448-1 1-1h20c.552 0 1 .447 1 1s-.448 1-1 1zM27 30.5h-20c-.552 0-1-.447-1-1s.448-1 1-1h20c.552 0 1 .447 1 1s-.448 1-1 1zM15 20.5h-8c-.552 0-1-.447-1-1s.448-1 1-1h8c.552 0 1 .447 1 1s-.448 1-1 1z" fill="#C4C2A5"/></svg>